<svg id="Capa_1" data-name="Capa 1" xmlns="http://www.w3.org/2000/svg" viewBox="0 0 178.31 54.22"><defs><style>.cls-1{fill:#fff;}.cls-2{fill:#2a2c65;}.cls-3,.cls-4,.cls-5{fill:#2b2a65;}.cls-4{font-size:12.66px;font-family:Montserrat-Light, Montserrat;font-weight:300;}.cls-5{font-size:20.69px;font-family:Montserrat-SemiBold, Montserrat;font-weight:600;}.cls-6{letter-spacing:-0.02em;}.cls-7{letter-spacing:-0.01em;}</style></defs><rect class="cls-1" x="0.5" y="0.5" width="177.31" height="53.22" rx="4.5"/><path class="cls-2" d="M173.31,1a4,4,0,0,1,4,4V49.22a4,4,0,0,1-4,4H5a4,4,0,0,1-4-4V5A4,4,0,0,1,5,1H173.31m0-1H5A5,5,0,0,0,0,5V49.22a5,5,0,0,0,5,5H173.31a5,5,0,0,0,5-5V5a5,5,0,0,0-5-5Z"/><path class="cls-3" d="M11.07,22.16c-2.89,5-1.05,12.63,2.14,17.25,1.6,2.31,3.22,4.38,5.43,4.38h.13a6.69,6.69,0,0,0,2.52-.67,6.84,6.84,0,0,1,3-.71,6.44,6.44,0,0,1,2.84.69,6.09,6.09,0,0,0,2.72.65c2.5,0,4-2.28,5.38-4.26a18.89,18.89,0,0,0,2.35-4.82v0a.28.28,0,0,0-.15-.35h0a7.12,7.12,0,0,1-4.33-6.54,7.33,7.33,0,0,1,3.48-6.15l0,0a.32.32,0,0,0,.12-.18.26.26,0,0,0-.05-.21,8.07,8.07,0,0,0-6.36-3.46,5.12,5.12,0,0,0-.56,0,11,11,0,0,0-4,1,6.34,6.34,0,0,1-1.91.57,6.27,6.27,0,0,1-2-.58,9.75,9.75,0,0,0-3.49-.88h-.09A8.54,8.54,0,0,0,11.07,22.16Z"/><path class="cls-3" d="M30.29,9.58a7.78,7.78,0,0,0-5.15,2.64,7.35,7.35,0,0,0-1.86,5.43.29.29,0,0,0,.26.24l.36,0a6.61,6.61,0,0,0,4.87-2.5,7.68,7.68,0,0,0,1.81-5.58A.27.27,0,0,0,30.29,9.58Z"/><text class="cls-4" transform="translate(48.87 17.91)">Disponible en</text><text class="cls-5" transform="translate(48.27 39.99)">App S<tspan class="cls-6" x="62.6" y="0">t</tspan><tspan x="71" y="0">o</tspan><tspan class="cls-7" x="84.34" y="0">r</tspan><tspan x="92.82" y="0">e</tspan></text></svg>