<svg xmlns="http://www.w3.org/2000/svg" xmlns:xlink="http://www.w3.org/1999/xlink" viewBox="0 0 740.32 1181.49"><defs><style>.cls-1,.cls-13,.cls-14,.cls-16{fill:none;}.cls-2{isolation:isolate;}.cls-3{clip-path:url(#clip-path);}.cls-4{fill:#bebfc1;}.cls-10,.cls-11,.cls-14,.cls-15,.cls-16,.cls-4,.cls-5,.cls-6,.cls-7,.cls-8,.cls-9{stroke:#fff;stroke-width:3px;}.cls-10,.cls-11,.cls-13,.cls-14,.cls-15,.cls-16,.cls-4,.cls-5,.cls-6,.cls-7,.cls-8,.cls-9{stroke-miterlimit:10;}.cls-11,.cls-15,.cls-17,.cls-5,.cls-6{fill:#ebebec;}.cls-10,.cls-16,.cls-5,.cls-9{mix-blend-mode:multiply;}.cls-10,.cls-7,.cls-9{fill:#d9d9db;}.cls-18,.cls-19,.cls-8{fill:#fff;}.cls-10,.cls-11{opacity:0.5;}.cls-11,.cls-15,.cls-17,.cls-19{mix-blend-mode:screen;}.cls-12{fill:#e1e1e1;}.cls-13{stroke:#e1e1e1;stroke-width:4px;}</style><clipPath id="clip-path"><rect class="cls-1" x="-6.85" y="-392.49" width="353.5" height="289.23"/></clipPath></defs><g class="cls-2"><g id="Capa_1" data-name="Capa 1"><g class="cls-3"><path class="cls-4" d="M115.05,43.41c.74-7.36-1.47-16-7.2-21C99.34,15,85.25,18.78,77,24.49A39.1,39.1,0,0,0,65,37.35c-1.41,2.4-2.6,4.94-3.79,7.46C60.1,46.58,59,48.34,58,50.13a123.7,123.7,0,0,0-6.82,14.45c-3.37,7.91-6.46,16.46-6,25.19.78,15.93,19.34,23.38,32.82,18.44,7-2.55,12.49-8,16.65-14a80.86,80.86,0,0,0,6.34-11.59c2.31-4.86,4.79-9.62,6.9-14.57C111.13,60.26,114.21,51.86,115.05,43.41Z"/><path class="cls-5" d="M95.41,54.28c8.27-3.26,15.27-9.07,18.89-17.34.17-.39.31-.78.47-1.17-.87-5.09-3.11-10-6.92-13.35C99.34,15,85.25,18.78,77,24.49A39.1,39.1,0,0,0,65,37.35c-.7,1.18-1.34,2.4-2,3.63C68.48,53.32,81.89,59.61,95.41,54.28Z"/><path class="cls-6" d="M73.29,67c-7-2.06-15-3.58-22.19-2.32-3.34,7.88-6.41,16.39-6,25.08.78,15.93,19.34,23.38,32.82,18.44,7-2.55,12.49-8,16.65-14a67,67,0,0,0,4.87-8.52C92.63,77.05,84.43,70.28,73.29,67Z"/><path class="cls-7" d="M115.05,43.41c.74-7.36-1.47-16-7.2-21a15.89,15.89,0,0,0-4.35-2.71c4.58,3.72,7.52,9.52,8.24,16.18C113.17,49,106.37,62.45,100,73.51c-7.2,12.57-17.38,24-32.61,25.76-6.39.74-14.73.07-18.91-5.6a18.65,18.65,0,0,1-3.2-9.52,35.09,35.09,0,0,0-.2,5.62c.78,15.93,19.34,23.38,32.82,18.44,7-2.55,12.49-8,16.65-14a80.86,80.86,0,0,0,6.34-11.59c2.31-4.86,4.79-9.62,6.9-14.57C111.13,60.26,114.21,51.86,115.05,43.41Z"/><path class="cls-6" d="M75.42,2.24a42,42,0,0,0,22-3.48,45.07,45.07,0,0,0,10.25-6c-.13-6.29.32-10.21,2.19-14.27-11.1,3.45-24,2.69-34.93.72-8.22-1.48-20-4.4-26.35-11.25a124.31,124.31,0,0,0,2,19.38C56-4.06,64.68,1.12,75.42,2.24Z"/><path class="cls-8" d="M89.72,65.88a2.91,2.91,0,0,1-.69-.27C71.17,55.12,59.92,58.42,59.8,58.45a2.32,2.32,0,0,1-2.92-1.53A2.35,2.35,0,0,1,58.42,54c.53-.16,13.36-3.94,33,7.59a2.34,2.34,0,0,1-1.67,4.3Z"/><path class="cls-8" d="M86.3,75.76a2.14,2.14,0,0,1-.78-.33c-18.16-11.84-30.35-8.57-30.47-8.54a2.33,2.33,0,0,1-1.28-4.49c.58-.16,14.38-3.87,34.3,9.12a2.34,2.34,0,0,1-1.77,4.24Z"/><path class="cls-4" d="M123.68,71.48c-.14,5.39.14,10.74.21,16.12a80.79,80.79,0,0,0,1,13.18c1.28,7.18,4,14.45,9.31,19.68,10.21,10.09,30.18,11,37.51-3.14,4-7.77,4.76-16.82,5-25.42a125.11,125.11,0,0,0-.2-16c-.21-2.07-.46-4.12-.72-6.18,0-2.79-.06-5.59-.34-8.37a39.42,39.42,0,0,0-5.55-16.67c-5.17-8.64-16.39-18-27.25-14.72-7.29,2.19-12.88,9.1-15.27,16.1C124.59,54.12,123.9,63,123.68,71.48Z"/><path class="cls-5" d="M140.68,64.13c-6.16-6.4-10.12-14.59-10-23.62,0-.42,0-.84.06-1.26,2.9-4.26,7-7.81,11.83-9.26,10.86-3.26,22.08,6.08,27.25,14.72a39.42,39.42,0,0,1,5.55,16.67c.14,1.37.21,2.75.26,4.12C165.57,74.46,150.76,74.6,140.68,64.13Z"/><path class="cls-6" d="M155.51,84.91c7.21,1,15.08,3,21.14,7.11-.23,8.56-1,17.57-5,25.3-7.33,14.17-27.3,13.23-37.51,3.14-5.29-5.23-8-12.5-9.31-19.68A66.57,66.57,0,0,1,124,91C133.74,86,144,83.25,155.51,84.91Z"/><path class="cls-7" d="M127.33,46.09c2.39-7,8-13.91,15.27-16.1a15.67,15.67,0,0,1,5.09-.66c-5.71,1.48-10.79,5.53-14.22,11.29-6.74,11.32-6.16,26.39-5,39.09,1.33,14.42,5.84,29,19,37,5.5,3.33,13.36,6.18,19.52,2.77a18.76,18.76,0,0,0,6.87-7.33,34.46,34.46,0,0,1-2.16,5.19c-7.33,14.17-27.3,13.23-37.51,3.14-5.29-5.23-8-12.5-9.31-19.68a80.79,80.79,0,0,1-1-13.18c-.07-5.38-.35-10.73-.21-16.12C123.9,63,124.59,54.12,127.33,46.09Z"/><path class="cls-7" d="M147.07,63.09c-5.08-3.52-9.56-8.43-10.8-14.66A24.81,24.81,0,0,1,136,41.2c.15-.4.31-.79.49-1.18C156.66-2.5,161.62-2.1,158-19.4s-10.78-43.47-5.64-48.17C168.8-82.64,203.13-86.2,203.13-86.2s12.75.54,14.87,5.29,13.15,58.74,1.9,84.41c-9,20.6-35.66,50.27-45.81,61.16C166.17,70.18,155.36,68.85,147.07,63.09Z"/><path class="cls-6" d="M197.83,3.08C188.7.3,181.29-8.93,185.92-18.7c6.08-12.8,27.34-16.49,39-8.42-.07,11.41-1.39,22.45-5,30.62a1,1,0,0,0-.07.15C212.58,5,204.72,5.18,197.83,3.08Z"/><path class="cls-9" d="M205.78-1c-6.33-1.93-11.46-8.33-8.25-15.1,4.21-8.87,18.95-11.43,27-5.83-.05,7.9-1,15.56-3.45,21.22a.54.54,0,0,1-.05.11A32.44,32.44,0,0,1,205.78-1Z"/><path class="cls-6" d="M180.49,25.11a41.87,41.87,0,0,1-18.56-12.3c-2.11-2.48-5.1-6-6.8-9.76,2.74-5.67,4-9.41,3.94-13.88,8.66,7.75,20.68,12.4,31.46,15.17,8.09,2.07,20,4.31,28.66.72a125.14,125.14,0,0,1-9.93,16.77C200.81,27.47,190.72,28.56,180.49,25.11Z"/><path class="cls-8" d="M184,7.63c-9.54-3.45-19-9.4-25-17.79,0-.22,0-.44,0-.67,8.66,7.75,20.68,12.4,31.46,15.17,8.09,2.07,20,4.31,28.66.72-.94,2-2,4-3.22,6.14C205.9,14.05,193.16,10.93,184,7.63Z"/><path class="cls-10" d="M158-19.4c-3.67-17.3-10.78-43.47-5.64-48.17C168.8-82.64,203.13-86.2,203.13-86.2a42.16,42.16,0,0,1,9.44,1.59,20.05,20.05,0,0,0-5,0,53.17,53.17,0,0,0-17.75,5.77c-4.6,2.37-10.32,5.43-12.86,10.22-4.31,8.14-.42,19.3,1.38,27.7,2.42,11.35,4.51,24.11,2.45,35.68-2,11.31-8.64,21.35-15.33,30.47-3.3,4.5-6.74,8.9-10.11,13.35-2.68,3.54-6,7-8,11-3.31,6.5-1.32,11.53,2.8,15.37a29.33,29.33,0,0,1-3-1.84c-5.08-3.52-9.56-8.43-10.8-14.66A24.81,24.81,0,0,1,136,41.2c.15-.4.31-.79.49-1.18C156.66-2.5,161.62-2.1,158-19.4Z"/><path class="cls-11" d="M213.47-79.66s13.82,59.32,4.8,80.4-45.81,61.11-45.81,61.11S210,15.27,216-4.93s-15.87-71.69-15.87-71.69Z"/><path class="cls-8" d="M141,77.05a2.57,2.57,0,0,0,.74,0c20.6-2.12,29.46,5.56,29.55,5.64a2.33,2.33,0,1,0,3.11-3.48c-.42-.38-10.51-9.14-33.14-6.81a2.34,2.34,0,0,0-.26,4.61Z"/><path class="cls-8" d="M140,87.46a2.36,2.36,0,0,0,.84,0c21.44-3.22,31.17,4.81,31.26,4.89a2.33,2.33,0,1,0,3-3.55c-.45-.39-11.46-9.5-35-6a2.33,2.33,0,0,0-.15,4.59Z"/></g><path class="cls-12" d="M132.73,235.48c-1.42-3.16-4.44-5.51-8.75-6.81a37.3,37.3,0,0,0-14.07-.95l-.31,0-.27-.16A29.09,29.09,0,0,0,66,247.05l-.06.3-.23.21a37.79,37.79,0,0,0-8.64,11.16c-1.88,4.09-2.14,7.91-.72,11.06,2.27,5.05,8.45,7.89,17.41,8a50.58,50.58,0,0,0,5.42-.24l.31,0,.26.16a29.1,29.1,0,0,0,43.33-19.46l.06-.31.23-.21a49,49,0,0,0,3.78-3.89C133,247,135,240.53,132.73,235.48Zm-52.12-5.65a26.35,26.35,0,0,1,11.11-3.78l.78-.08.23.76a6.49,6.49,0,0,1,.28,1.91A6.61,6.61,0,0,1,80.21,231l-.28-.74Zm-6.82,45.61c-7.88-.1-13.45-2.51-15.3-6.62-1.14-2.55-.9-5.61.72-9.11a29.51,29.51,0,0,1,4.6-6.84l1.6-1.83.07,2.43A28.93,28.93,0,0,0,74,273.19l.63.61,1.8,1.7Zm45.07-11.72a26.72,26.72,0,0,1-32.2,14.45l-3.44-1.06,3.52-.78a86.15,86.15,0,0,0,30.69-13.78l2.93-2.13Zm2.14-7.34,0,.35-.27.23a76.26,76.26,0,0,1-18.88,11.85,76.38,76.38,0,0,1-21.39,6.24l-.35,0-.29-.19A26.69,26.69,0,0,1,77,232.5l.91-.8.56,1.07a9,9,0,0,0,16.91-4.13,8.16,8.16,0,0,0-.14-1.56l-.21-1.2,1.21.08a26.76,26.76,0,0,1,25,26.67A26.38,26.38,0,0,1,121,256.38Zm4.38-4.11-1.68,1.89-.1-2.37a29,29,0,0,0-8.5-19.72l-.63-.6-1.77-1.67,2.44,0a29.56,29.56,0,0,1,8.16,1.1c3.69,1.11,6.14,3,7.29,5.52C132.43,240.55,130.53,246.31,125.38,252.27Z"/><path class="cls-12" d="M86.4,246.61a6.88,6.88,0,1,0,6.88,6.88A6.88,6.88,0,0,0,86.4,246.61Zm0,11.4a4.53,4.53,0,1,1,4.53-4.52A4.54,4.54,0,0,1,86.4,258Z"/><path class="cls-12" d="M109.21,247.05a5.58,5.58,0,1,0,5.58,5.58A5.6,5.6,0,0,0,109.21,247.05Zm0,8.81a3.23,3.23,0,1,1,3.23-3.23A3.23,3.23,0,0,1,109.21,255.86Z"/><circle class="cls-13" cx="35.45" cy="1152.62" r="26.87"/><circle class="cls-13" cx="721.25" cy="1139.82" r="17.07"/><polygon class="cls-12" points="679.72 1147.62 681 1151.07 684.44 1152.34 681 1153.62 679.72 1157.07 678.45 1153.62 675 1152.34 678.45 1151.07 679.72 1147.62"/><polygon class="cls-12" points="4.72 584.62 6 588.07 9.44 589.34 6 590.62 4.72 594.07 3.45 590.62 0 589.34 3.45 588.07 4.72 584.62"/><path class="cls-12" d="M479.72,1167.39l.34.91.16.44.43.16.91.33-.91.34-.43.16-.16.43-.34.91-.34-.91-.15-.43-.44-.16-.91-.34.91-.33.44-.16.15-.44.34-.91m0-2.88-1.27,3.45-3.45,1.27,3.45,1.28,1.27,3.45,1.28-3.45,3.44-1.28L481,1168l-1.28-3.45Z"/><path class="cls-12" d="M670.72,578.39l.34.91.16.44.43.16.91.33-.91.34-.43.16-.16.43-.34.91-.34-.91-.15-.43-.44-.16-.91-.34.91-.33.44-.16.15-.44.34-.91m0-2.88L669.45,579,666,580.23l3.45,1.28,1.27,3.45,1.28-3.45,3.44-1.28L672,579l-1.28-3.45Z"/><path class="cls-12" d="M630.72,268.39l.34.91.16.44.43.16.91.33-.91.34-.43.16-.16.43-.34.91-.34-.91-.15-.43-.44-.16-.91-.34.91-.33.44-.16.15-.44.34-.91m0-2.88L629.45,269,626,270.23l3.45,1.28,1.27,3.45,1.28-3.45,3.44-1.28L632,269l-1.28-3.45Z"/><polygon class="cls-12" points="18.94 391.84 22.44 401.29 31.89 404.79 22.44 408.28 18.94 417.73 15.45 408.28 6 404.79 15.45 401.29 18.94 391.84"/><polygon class="cls-12" points="696.5 356.36 699.99 365.81 709.44 369.3 699.99 372.8 696.5 382.25 693 372.8 683.55 369.3 693 365.81 696.5 356.36"/><polygon class="cls-12" points="226.5 1154.58 227.77 1158.03 231.22 1159.3 227.77 1160.58 226.5 1164.02 225.22 1160.58 221.77 1159.3 225.22 1158.03 226.5 1154.58"/><path class="cls-12" d="M692.75,267.4l-18.89-13.33a.82.82,0,0,0-1.07.09l-2.51,2.5-4.2-4.2,13-13A6.66,6.66,0,0,0,669.7,230l-.05.05-13,13-4.21-4.21,2.51-2.5a.85.85,0,0,0,.09-1.08l-13.33-18.89a.82.82,0,0,0-.61-.35.87.87,0,0,0-.66.24L628.68,228a.84.84,0,0,0-.24.66.82.82,0,0,0,.35.61l18.89,13.33a.86.86,0,0,0,1.08-.09l2.5-2.51,4.21,4.21-5.35,5.35v.55h-.55L643.68,256a6.68,6.68,0,0,0,0,9.4,6.68,6.68,0,0,0,9.43,0l11.76-11.76,4.21,4.21-2.5,2.5a.82.82,0,0,0-.09,1.07l13.32,18.89a.83.83,0,0,0,.62.35h.07a.83.83,0,0,0,.59-.25l11.75-11.75a.83.83,0,0,0-.11-1.27Zm-62.18-38.92,10.35-10.35,4.53,6.43L637,233Zm17.5,12.35L638.38,234l8-8.05,6.84,9.69Zm22.82-9.68a5,5,0,0,1,8.5,3.56,4.92,4.92,0,0,1-1.47,3.53l-6.81,6.82L664.05,238Zm-19,33.11a5,5,0,0,1-7,0,5,5,0,0,1,0-7.06l5.55-5.55,7.06,7.06Zm6.77-6.77-7.06-7.07,11.24-11.24,7.06,7.06Zm9.6,3.54,5.19-5.19,9.69,6.84-8,8.05Zm12.35,17.51-4.54-6.43,8.46-8.46,6.43,4.54Z"/><path class="cls-12" d="M265.4,262.88l.34.91.16.43.43.16.91.34-.91.34-.43.15-.16.44-.34.91-.34-.91-.16-.44-.43-.15-.91-.34.91-.34.43-.16.16-.43.34-.91m0-2.88-1.28,3.44-3.44,1.28,3.44,1.27,1.28,3.45,1.27-3.45,3.45-1.27-3.45-1.28L265.4,260Z"/><path class="cls-14" d="M335.18,332.7A164,164,0,0,1,320.47,313"/><path class="cls-14" d="M292.8,315.41c6.07,18.24,18.51,35.1,25.52,43.67"/><path class="cls-15" d="M327.34,323l1.16,1.53A60.44,60.44,0,0,1,307.22,344c-.64-1-1.28-2-1.92-3A53.59,53.59,0,0,0,327.34,323Z"/><path class="cls-14" d="M328.28,372.59a37.59,37.59,0,0,1-7-3.34c-11.07-6.86,8.72-44.88,19.22-35.45.2.19.4.38.6.59"/><path class="cls-14" d="M324.58,290.57c-1.81,10.72-4,22.44-4,22.44s-5.54,14.39-20,10.68c0,0-9.81-4.37-8.64-14.56.7-6.15,4.36-18.14,8.67-27.26"/><path class="cls-14" d="M413.34,449.18a3.32,3.32,0,0,0,.56-1.28c.86-4.8,1.05-8,.06-10.15"/><path class="cls-14" d="M356.53,463.07c1.78.79,4.72,1.06,8.35.94"/><path class="cls-14" d="M321.18,417.66a22.65,22.65,0,0,0-5.52,11,3,3,0,0,0,.06,1.33"/><path class="cls-16" d="M321.18,417.66a22.65,22.65,0,0,0-5.52,11,3.28,3.28,0,0,0,.15,1.64"/><path class="cls-14" d="M349.52,332.54c-5,.42-9.12,1.64-10.81,4.28-5.6,8.72-20.19,77.15-17.27,83.75,2,4.53,16,12.5,32,18.27,3.6,1.3,7,2,10.69,3.05,3.77.61,7.89,1.51,11.7,1.83,16.95,1.39,33,0,36.73-3.3,5.4-4.79,20.57-73.1,19.11-83.36-.45-3.17-3.85-6.05-8.32-8.53"/><path class="cls-14" d="M345.55,322.91a12.42,12.42,0,0,1-2.48-.29h0a12.76,12.76,0,0,1-9.75-15.18l1.9-8.75a12.76,12.76,0,0,1,15.18-9.75"/><path class="cls-14" d="M345.2,296.42a2.6,2.6,0,1,1-2-3.1A2.61,2.61,0,0,1,345.2,296.42Z"/><path class="cls-14" d="M342.4,307a2.6,2.6,0,1,1-2-3.09A2.6,2.6,0,0,1,342.4,307Z"/><path class="cls-14" d="M430,341.29a12.4,12.4,0,0,0,2.37.77h0a12.77,12.77,0,0,0,15.19-9.76l1.9-8.74a12.77,12.77,0,0,0-9.75-15.19"/><path class="cls-14" d="M441.31,317.34a2.6,2.6,0,1,0,3.1-2A2.62,2.62,0,0,0,441.31,317.34Z"/><path class="cls-14" d="M439.45,328.14a2.6,2.6,0,1,0,3.1-2A2.61,2.61,0,0,0,439.45,328.14Z"/><path class="cls-14" d="M409.37,263.13a54,54,0,0,0-5.86-1.67,54.57,54.57,0,0,0-6-.92c-25.85-2.42-44.81,15.64-49.48,37.09-5.3,24.35-4.66,34.91,15.92,46.69a66.88,66.88,0,0,0,20.39,7.24,61.19,61.19,0,0,0,20.75,1.71c23.61-2.15,28.58-11.5,33.88-35.84C443.62,296,433.89,271.67,409.37,263.13Z"/><path class="cls-14" d="M431.08,318.31c-4.36,20-25,32.53-46,27.94s-34.6-24.53-30.25-44.55,25-32.53,46-27.94S435.44,298.29,431.08,318.31Z"/><path class="cls-17" d="M428.72,299.35a29.76,29.76,0,0,1-1.05,15.07c-4,11.88-15.63,19.38-27.82,20.2-11.13.74-24.2-2.29-32.55-10.1-12.66-11.87-10.05-29.75.05-41.73A33.36,33.36,0,0,0,357.59,300c-4.1,18.81,8.63,37.55,28.42,41.86s39.15-7.45,43.24-26.26A33.28,33.28,0,0,0,428.72,299.35Z"/><path class="cls-16" d="M406.45,369.54,399.52,368l-36.77-8-6.94-1.51c-6.87-1.5-9.15,3.57-10.89,7.61l-5.32,24.44-4.17,19.16-.16.7.14,0c-.06,4.26.27,9.3,6.76,10.71l6.94,1.51,36.77,8,6.93,1.51c6.5,1.41,8.89-3,10.6-6.93l.14,0,.16-.71,4.17-19.16L413.2,381C413.3,376.59,413.33,371,406.45,369.54Z"/><path class="cls-18" d="M398.54,409.6l-1.51-.33-8-1.75-1.51-.32c-1.5-.33-2,.77-2.37,1.65L384,414.17l-.91,4.18,0,.15h0c0,.92.06,2,1.47,2.33l1.51.33,8,1.74,1.52.33c1.41.31,1.93-.66,2.3-1.51h0l0-.16.91-4.17,1.16-5.32C400,411.13,400,409.92,398.54,409.6Z"/><path class="cls-18" d="M382.32,406.06l-1.51-.32-8-1.75-1.51-.33c-1.5-.32-2,.78-2.38,1.66l-1.15,5.32-.91,4.17,0,.16h0c0,.93.06,2,1.48,2.34l1.51.33,8,1.74,1.51.33c1.42.31,1.94-.66,2.31-1.51h0l0-.15.91-4.17,1.16-5.32C383.81,407.6,383.82,406.39,382.32,406.06Z"/><path class="cls-14" d="M381.53,396.81a3.45,3.45,0,0,1-4.11,2.64h0a3.45,3.45,0,0,1-2.64-4.1h0a3.45,3.45,0,0,1,4.11-2.64h0a3.44,3.44,0,0,1,2.64,4.1Z"/><path class="cls-14" d="M390.86,398.84a3.45,3.45,0,0,1-4.11,2.64h0a3.45,3.45,0,0,1-2.64-4.1h0a3.45,3.45,0,0,1,4.11-2.64h0a3.45,3.45,0,0,1,2.64,4.1Z"/><path class="cls-14" d="M400.19,400.88a3.45,3.45,0,0,1-4.11,2.63h0a3.45,3.45,0,0,1-2.64-4.1h0a3.45,3.45,0,0,1,4.11-2.64h0a3.46,3.46,0,0,1,2.64,4.11Z"/><path class="cls-6" d="M349.85,384.71l-6.09,28,19.41,4.22,6.09-28Zm1,27-5.09-1.11,1.11-5.09,5.08,1.11Zm1.3-6-5.09-1.11,1.11-5.08,5.08,1.1Zm1.32-6.08-5.09-1.11,1.11-5.09,5.09,1.11Zm1.3-6-5.09-1.1,1.11-5.09,5.09,1.11Zm1.72,19.26-5.09-1.1,1.11-5.09,5.08,1.11Zm1.3-6-5.09-1.11,1.11-5.09,5.08,1.11Zm1.32-6.08-5.09-1.11,1.11-5.09,5.09,1.11Zm1.3-6-5.08-1.11,1.1-5.08,5.09,1.1Zm1.72,19.26L357.09,413l1.1-5.08,5.09,1.1Zm1.3-6-5.09-1.11L359.5,402l5.08,1.11Zm1.32-6.09L359.71,401l1.11-5.08,5.09,1.11Zm1.3-6L361,395l1.11-5.09,5.09,1.11Z"/><path class="cls-19" d="M404.11,374.83l-2.94-.64-15.58-3.39-2.94-.64-3.25-.71-2.94-.64-15.59-3.4-2.94-.64c-2.91-.63-3.71.72-4.3,1.8l-1.46,6.68L351,378.49l0,.19.06,0c.1,1.19.4,2.61,3.15,3.21l2.94.64,15.59,3.39,2.94.64,3.25.71,2.94.64,15.58,3.39,2.94.64c2.76.6,3.61-.57,4.21-1.61l.06,0,0-.2,1.14-5.24,1.45-6.68C407.19,377,407,375.46,404.11,374.83Zm.4,9.63-.87,4,0,.15h-.05c-.45.79-1.1,1.68-3.19,1.22l-2.23-.49-11.83-2.57-2.24-.49-2.46-.53-2.24-.49-11.83-2.58-2.23-.48c-2.09-.46-2.32-1.54-2.4-2.44h0l0-.15.87-4,1.1-5.07c.46-.82,1.06-1.84,3.27-1.36l2.23.48,11.84,2.58,2.23.48,2.47.54,2.23.49L401,376.3l2.23.49c2.22.48,2.34,1.66,2.41,2.6Z"/><path class="cls-14" d="M357.5,530.91c-4.65,2-8.19,6.57-9.78,11.23-2,5.84-2.49,12.32-2.65,18.45-.1,3.92.1,7.81.15,11.72a58,58,0,0,0,.7,9.58c.93,5.22,2.92,10.5,6.76,14.3,7.43,7.33,21.94,8,27.27-2.28,2.92-5.64,3.45-12.23,3.62-18.48a89.78,89.78,0,0,0-.14-11.6c-.16-1.5-.34-3-.52-4.49,0-1.72,0-3.43-.17-5.14"/><path class="cls-14" d="M368.2,570.35c5.25.76,11,2.16,15.37,5.17-.17,6.22-.72,12.77-3.62,18.39-5.33,10.3-19.84,9.61-27.27,2.28-3.84-3.8-5.83-9.08-6.76-14.3a48.19,48.19,0,0,1-.65-7.11C352.38,571.15,359.85,569.15,368.2,570.35Z"/><path class="cls-14" d="M362.07,554.49c-3.69-2.56-6.95-6.12-7.86-10.65a18.21,18.21,0,0,1-.23-5.25c.11-.29.23-.58.36-.86,14.7-30.91,18.3-30.61,15.64-43.19s-7.83-31.59-4.09-35c12-10.95,36.92-13.54,36.92-13.54s9.27.39,10.81,3.84,9.56,42.7,1.38,61.35c-6.57,15-25.92,36.54-33.3,44.46C376,559.65,368.09,558.68,362.07,554.49Z"/><path class="cls-14" d="M395.88,476.62c-9.44.57-20.31,2.92-27.85,9.14-2.52-11.25-5.08-23.54-2.14-26.23,12-10.95,36.92-13.54,36.92-13.54s9.27.39,10.81,3.84c.89,2,4,16.21,4.8,31.39C412,477,403.21,476.19,395.88,476.62Z"/><path class="cls-14" d="M386.36,526.89A30.5,30.5,0,0,1,372.87,518a32.44,32.44,0,0,1-4.94-7.09c2-4.12,2.87-6.84,2.86-10.09,6.29,5.63,15,9,22.87,11,5.88,1.5,14.56,3.13,20.82.52a89.36,89.36,0,0,1-7.22,12.19C401.13,528.61,393.79,529.4,386.36,526.89Z"/><path class="cls-14" d="M357.68,564.64a1.64,1.64,0,0,0,.54,0c15-1.54,21.41,4.05,21.48,4.1a1.7,1.7,0,1,0,2.26-2.53c-.3-.27-7.64-6.64-24.09-5a1.7,1.7,0,0,0-.19,3.35Z"/><path class="cls-14" d="M357,572.21a1.77,1.77,0,0,0,.61,0c15.58-2.34,22.65,3.5,22.72,3.56a1.7,1.7,0,0,0,2.2-2.59c-.33-.28-8.33-6.9-25.42-4.33a1.7,1.7,0,0,0-.11,3.34Z"/><path class="cls-14" d="M301.35,538.12c-.82,1.49-1.55,3-2.28,4.6-.79,1.28-1.58,2.56-2.34,3.86a92.22,92.22,0,0,0-5,10.5c-2.44,5.76-4.69,12-4.38,18.31.57,11.59,14.06,17,23.86,13.4,5.07-1.85,9.08-5.84,12.09-10.2a57.8,57.8,0,0,0,4.61-8.42c1.67-3.54,3.47-7,5-10.6,2.4-5.64,4.64-11.75,5.25-17.89.49-4.9-.82-10.55-4.24-14.27"/><path class="cls-14" d="M307.87,558.84c-5.08-1.49-10.87-2.59-16.12-1.68-2.43,5.74-4.66,11.92-4.35,18.23.57,11.59,14.06,17,23.86,13.4,5.07-1.85,9.08-5.84,12.09-10.2a47.35,47.35,0,0,0,3.54-6.19C321.93,566.14,316,561.22,307.87,558.84Z"/><path class="cls-14" d="M320,547c4.42-.8,8.86-2.69,11.56-6.44a17.55,17.55,0,0,0,2.39-4.68c0-.31,0-.62,0-.92-.54-34.23-3.94-35.45,3.7-45.79S358,463.65,356,459c-6.34-14.94-28-27.65-28-27.65s-8.6-3.49-11.43-1-26.42,34.87-26.73,55.24c-.25,16.35,8.41,44,11.83,54.26C305.27,545.89,312.82,548.27,320,547Z"/><path class="cls-14" d="M321.61,462.08c8.35,4.43,17.27,11.09,21.54,19.88,7-9.18,14.4-19.31,12.84-23-6.34-14.94-28-27.65-28-27.65s-8.6-3.49-11.43-1c-1.65,1.46-10.37,13.08-17.4,26.55C306.77,455.77,315.12,458.64,321.61,462.08Z"/><path class="cls-14" d="M309.4,511.77a30.45,30.45,0,0,0,16-2.53,33,33,0,0,0,7.45-4.4c-.1-4.57.23-7.42,1.58-10.37-8.06,2.51-17.42,2-25.38.53-6-1.07-14.55-3.19-19.16-8.17a91.18,91.18,0,0,0,1.5,14.09C295.25,507.2,301.6,511,309.4,511.77Z"/><path class="cls-14" d="M319.81,558a1.94,1.94,0,0,1-.5-.2c-13-7.62-21.16-5.21-21.24-5.19a1.7,1.7,0,1,1-1-3.24c.39-.12,9.71-2.87,24,5.5a1.7,1.7,0,0,1-1.22,3.13Z"/><path class="cls-14" d="M317.33,565.2a1.58,1.58,0,0,1-.57-.24c-13.2-8.6-22.06-6.22-22.14-6.19a1.7,1.7,0,0,1-.93-3.27c.42-.12,10.44-2.81,24.93,6.62a1.7,1.7,0,0,1,.49,2.35A1.68,1.68,0,0,1,317.33,565.2Z"/><path class="cls-14" d="M437.87,356.08a164.13,164.13,0,0,0,21.57-11.81"/><path class="cls-14" d="M483.6,358c-13.11,14.07-31.42,24.23-41.36,29.11"/><path class="cls-15" d="M449,350.48l-1.69.92A60.38,60.38,0,0,0,458.6,378c1-.62,2-1.27,3-1.93A53.68,53.68,0,0,1,449,350.48Z"/><path class="cls-14" d="M427.57,395.22a37.52,37.52,0,0,0,7.79-.1c12.91-1.64,10.72-44.45-2.75-40.23a8.29,8.29,0,0,0-.79.28"/><path class="cls-14" d="M465,322.17c-2.81,10.5-5.67,22.08-5.67,22.08s-.94,15.39,13.72,18c0,0,10.74.1,13.92-9.65,1.92-5.88,3.57-18.31,3.44-28.4"/><path class="cls-14" d="M338.09,266.1c-2.14-1-4.75-.3-6.6,1-.7.49-5.62,4.54-5.47,5.06-1-3.52.1-13.77.37-15.11.35-1.74,1-3.48,1.21-5.24a7.19,7.19,0,0,0-.15-3.74q-2.85-3.39-5.06-.29s0,0,0,0a21.08,21.08,0,0,0-1.53,3.17,20.24,20.24,0,0,0-1.16,3.29c-.14.45-.27.86-.39,1.22,0,.15-.09.32-.14.48,0-3.88.92-7.72.61-11.63-.17-2.14-4.93-3.19-6.4-2-2.56,2-.71,14.81-1.3,17.92-.2-1.46-1-11.72-1-13.23-.06-2.08-1.73-4.75-4.18-3.66-2.76,1.21-3.91,3.73-4,6.77,0,.24,2.16,12.24,2.16,12.49-.45-.84-2.57-13.61-3.51-13.76-3.94-.65-5.2,3.79-5.62,6.71a39.24,39.24,0,0,0,2.49,20.61c1.43,3.52,2.94,7.17,5.45,10.08,4.38,5.06,13.54,8.39,19.91,5.46,5-2.32,6.47-7.71,8.64-12.33a39,39,0,0,1,2.86-4.93c1.25-1.87,3.4-3.79,3.9-6.06A1.84,1.84,0,0,0,338.09,266.1Z"/><path class="cls-18" d="M304.72,271.48a8.73,8.73,0,0,1,2.62-3.76,12.46,12.46,0,0,1,8.51-3.06,9.9,9.9,0,0,1,4.42,1.1c-1.48.54-2.84.83-4.14,1.24s-2.56.79-3.8,1.21-2.46.94-3.71,1.48S306.12,270.82,304.72,271.48Z"/><path class="cls-18" d="M327.32,271.63c-1.31.79-2.49,1.48-3.58,2.2a15.9,15.9,0,0,0-2.86,2.3A8.93,8.93,0,0,0,319,279a14.2,14.2,0,0,0-.66,1.81c-.23.66-.3,1.35-.59,2.1a7.08,7.08,0,0,1-1-4.47,7.19,7.19,0,0,1,.63-2.37c.2-.37.42-.72.63-1.08a12.21,12.21,0,0,1,.79-1,9,9,0,0,1,4.09-2.38A8.36,8.36,0,0,1,327.32,271.63Z"/><path class="cls-14" d="M463,294.47c2.36,0,4.45,1.71,5.59,3.65.43.74,3.22,6.47,2.87,6.88,2.41-2.77,5.64-12.57,5.95-13.89.41-1.73.57-3.57,1.07-5.28a7.24,7.24,0,0,1,1.69-3.33c2.67-1.27,4.25-.65,4.73,1.83,0,0,0,0,0,.05a21.57,21.57,0,0,1,.07,3.51,19,19,0,0,1-.32,3.47c0,.47-.11.91-.15,1.28,0,.16-.05.33-.07.49,1.59-3.54,2.37-7.39,4.28-10.82,1-1.88,5.81-.85,6.66.82,1.49,2.9-5.52,13.76-6.27,16.84.79-1.25,5.77-10.25,6.43-11.61.91-1.87,3.55-3.6,5.33-1.6,2,2.26,2,5,.79,7.82-.09.22-7,10.24-7.15,10.46.76-.58,8-11.31,8.91-11.06,3.85,1,3.16,5.62,2.33,8.44A39.38,39.38,0,0,1,495,320.13c-2.77,2.61-5.66,5.3-9.15,6.9-6.09,2.78-15.8,2-20.38-3.3-3.62-4.21-2.68-9.71-2.74-14.81a38.47,38.47,0,0,0-.55-5.67c-.35-2.23-1.51-4.86-1-7.13A1.85,1.85,0,0,1,463,294.47Z"/><path class="cls-18" d="M491.33,312.46c-1-1.18-1.9-2.23-2.81-3.24s-1.8-2-2.75-2.89-1.9-1.82-3-2.68-2.13-1.75-3.25-2.85a10,10,0,0,1,4.48.83A12.52,12.52,0,0,1,490.5,308,8.71,8.71,0,0,1,491.33,312.46Z"/><path class="cls-18" d="M470.54,304a8.29,8.29,0,0,1,4.09,1.92,8.93,8.93,0,0,1,2.73,3.86c.11.4.26.79.33,1.2s.09.83.12,1.24a7.24,7.24,0,0,1-.42,2.42,7,7,0,0,1-2.8,3.63c.06-.8.28-1.45.34-2.14a13.26,13.26,0,0,0,.15-1.93,9.09,9.09,0,0,0-.55-3.43,16.74,16.74,0,0,0-1.64-3.28C472.19,306.36,471.4,305.24,470.54,304Z"/><rect class="cls-1" x="250.2" y="223.38" width="256.92" height="210.21"/><path class="cls-12" d="M220.79,527.93c-1.56-10.6-9.6-18.23-18.11-17.31h0a2.3,2.3,0,0,0-.26,0l-4.13.51c-.28,0-.55.05-.82.09l-.14,0h-.1c-8.55,1.42-14.19,11.12-12.61,21.82,1.52,10.37,9.25,17.89,17.54,17.36h0c.35,0,.69-.06,1-.11l.25,0,3.85-.46.65-.07C216.62,548.52,222.38,538.73,220.79,527.93Zm-13.34,18.53c-7.2,1.06-14.11-5.34-15.43-14.3s3.45-17.08,10.66-18.14,14.11,5.34,15.42,14.3S214.65,545.4,207.45,546.46Z"/><path class="cls-12" d="M197.37,521.49c.45,0,.9-.08,1.35-.14l1.33-.17,2.58-.42,1.39-.25a6.06,6.06,0,0,1,4.24.57,4.62,4.62,0,0,1,1.84,3.41,5,5,0,0,1-.54,3.43,4.25,4.25,0,0,1-2.76,1.81v.08a5.11,5.11,0,0,1,3.66.91,4.93,4.93,0,0,1,1.69,3.32,4.58,4.58,0,0,1-.89,4,7.35,7.35,0,0,1-4.44,1.86c-.53.08-1.21.17-2.05.26l-1.69.21-1.37.22-1.5.28-.16-1.05c.78-.11,1.26-.32,1.43-.6a3.54,3.54,0,0,0,0-1.93l-1.9-13c-.14-.9-.33-1.44-.57-1.61a2.53,2.53,0,0,0-1.53-.12Zm4.69.44,1.15,7.8,1.61-.23a3,3,0,0,0,2.3-1.28,4.79,4.79,0,0,0,.31-3.1,5,5,0,0,0-1.17-2.92,3.47,3.47,0,0,0-2.84-.47Zm1.31,8.88,1.21,8.25,1.44-.21a3.88,3.88,0,0,0,2.81-1.35,4.63,4.63,0,0,0,.38-3.25,4.83,4.83,0,0,0-1.35-3.1,3.84,3.84,0,0,0-3.11-.54Z"/><rect class="cls-12" x="200.33" y="518.64" width="1.41" height="2.58" transform="matrix(0.99, -0.15, 0.15, 0.99, -73.53, 34.79)"/><rect class="cls-12" x="203.44" y="539.52" width="1.41" height="3.07" transform="translate(-76.57 35.47) rotate(-8.37)"/><rect class="cls-12" x="203.1" y="518.21" width="1.41" height="2.58" transform="translate(-73.43 35.19) rotate(-8.37)"/><rect class="cls-12" x="206.2" y="539.08" width="1.41" height="3.07" transform="translate(-76.47 35.87) rotate(-8.37)"/><path class="cls-12" d="M576.9,527.11l1.08.12,6.4.77.41.07c.57.08,1.14.14,1.72.18h0c13.78.89,26.61-11.61,29.14-28.82,2.62-17.77-6.74-33.89-20.94-36.25h0l-.16,0-.24,0c-.45-.07-.91-.12-1.36-.16l-6.87-.85-.42-.05h-.06c-14.13-1.52-27.48,11.15-30.07,28.74C552.92,508.72,562.47,525,576.9,527.11ZM560,491.44c2.18-14.88,13.66-25.51,25.62-23.75s19.89,15.24,17.7,30.12-13.66,25.51-25.63,23.75S557.83,506.31,560,491.44Z"/><path class="cls-12" d="M582.88,475.23c.58.49,1.16,1,1.75,1.43s1.17.91,1.76,1.35c1.13.84,2.3,1.68,3.52,2.54l1.93,1.35q3.7,2.75,4.31,5.64t-1.84,6.16a8.16,8.16,0,0,1-4.67,3.39,7,7,0,0,1-5.37-1.11l-.08.1a8.53,8.53,0,0,1,3.23,5.38,8.18,8.18,0,0,1-1.9,5.88q-2.57,3.45-5.7,3.6t-7.41-3c-.71-.53-1.61-1.23-2.71-2.09s-1.83-1.45-2.23-1.74c-.58-.44-1.2-.89-1.87-1.36s-1.37-.94-2.09-1.42l1-1.43c1.06.78,1.86,1.11,2.4,1s1.3-.88,2.3-2.22l13-17.46c.9-1.21,1.31-2.07,1.22-2.56a4.2,4.2,0,0,0-1.64-1.93Zm5,6-7.82,10.51,2.17,1.61a5,5,0,0,0,4.21,1.21c1.27-.32,2.61-1.42,4-3.29s2.12-3.54,2.05-4.8-1-2.56-2.77-3.88Zm-8.9,12-8.26,11.12,1.94,1.44c1.89,1.4,3.52,2,4.88,1.72s2.79-1.39,4.27-3.37,2.19-3.78,2.06-5.24-1.15-2.89-3-4.28Z"/><rect class="cls-12" x="586.88" y="476.54" width="4.28" height="2.34" transform="translate(-145.79 665.35) rotate(-53.37)"/><rect class="cls-12" x="565.31" y="505" width="5.1" height="2.34" transform="translate(-177.16 659.85) rotate(-53.37)"/><rect class="cls-12" x="590.64" y="479.27" width="4.28" height="2.34" transform="translate(-146.46 669.47) rotate(-53.37)"/><rect class="cls-12" x="569.07" y="507.73" width="5.1" height="2.34" transform="translate(-177.84 663.97) rotate(-53.37)"/></g></g></svg>