<svg xmlns="http://www.w3.org/2000/svg" xmlns:xlink="http://www.w3.org/1999/xlink" viewBox="0 0 1381.44 447.32"><defs><clipPath id="a"><rect x="968.94" y="119.06" width="353.5" height="289.23" style="fill:none"/></clipPath></defs><g style="isolation:isolate"><path d="M181.62,165.72c-2.23-5-7-8.66-13.77-10.7-6-1.81-13.66-2.34-22.14-1.51l-.49.05-.42-.25a45.79,45.79,0,0,0-68.18,30.62l-.09.48-.36.33c-6.26,5.8-11,11.87-13.59,17.56-3,6.42-3.37,12.44-1.14,17.4,3.57,7.94,13.29,12.42,27.39,12.6a81.05,81.05,0,0,0,8.53-.38l.48,0,.42.25a45.78,45.78,0,0,0,68.17-30.62l.1-.48.36-.33a79,79,0,0,0,6-6.13C182.07,183.91,185.18,173.67,181.62,165.72Zm-82-8.88a41.58,41.58,0,0,1,17.48-5.94l1.23-.13.36,1.19a10.21,10.21,0,0,1,.45,3A10.41,10.41,0,0,1,99,158.65l-.44-1.16ZM88.87,228.6c-12.39-.16-21.16-3.95-24.06-10.41-1.8-4-1.42-8.84,1.12-14.34a46.23,46.23,0,0,1,7.24-10.75l2.53-2.89.1,3.83a45.6,45.6,0,0,0,13.38,31l1,.95L93,228.7Zm70.92-18.45a42.09,42.09,0,0,1-50.66,22.75l-5.41-1.68,5.53-1.22a130.61,130.61,0,0,0,25.22-8.47,130.15,130.15,0,0,0,23.07-13.21l4.62-3.34Zm3.37-11.54-.07.55-.42.36A119.44,119.44,0,0,1,133,218.16,119.7,119.7,0,0,1,99.31,228l-.55.06-.46-.3A42,42,0,0,1,93.9,161l1.44-1.26.88,1.69a14.09,14.09,0,0,0,26.6-6.5,13.56,13.56,0,0,0-.22-2.46l-.33-1.88,1.9.12a42,42,0,0,1,39,47.86Zm6.89-6.47-2.65,3-.15-3.73a45.49,45.49,0,0,0-13.38-31l-1-1-2.78-2.62,3.82,0a46.78,46.78,0,0,1,12.85,1.73c5.81,1.76,9.66,4.68,11.47,8.69C181.15,173.7,178.16,182.78,170.05,192.14Z" style="fill:#e1e1e1"/><path d="M108.72,183.24a10.82,10.82,0,1,0,10.82,10.82A10.83,10.83,0,0,0,108.72,183.24Zm0,17.94a7.13,7.13,0,1,1,7.13-7.12A7.12,7.12,0,0,1,108.72,201.18Z" style="fill:#e1e1e1"/><path d="M144.61,183.94a8.78,8.78,0,1,0,8.78,8.77A8.78,8.78,0,0,0,144.61,183.94Zm0,13.86a5.09,5.09,0,1,1,5.09-5.09A5.09,5.09,0,0,1,144.61,197.8Z" style="fill:#e1e1e1"/><path d="M1368.08,143.08l-18.89-13.33a.84.84,0,0,0-1.08.09l-2.5,2.51-4.21-4.21,13-13a6.66,6.66,0,0,0-9.4-9.45l0,0-13,13-4.21-4.21,2.5-2.5a.82.82,0,0,0,.09-1.07L1317,92a.82.82,0,0,0-1.27-.1L1304,103.68a.83.83,0,0,0,.11,1.27L1323,118.28a.85.85,0,0,0,1.07-.09l2.5-2.5,4.21,4.2-5.35,5.35v.55h-.54l-5.9,5.9a6.66,6.66,0,0,0,4.74,11.34,6.59,6.59,0,0,0,4.71-1.95l11.77-11.76,4.21,4.21-2.51,2.5a.83.83,0,0,0-.09,1.07l13.33,18.9a.82.82,0,0,0,.61.35h.07a.83.83,0,0,0,.59-.25l11.76-11.75a.84.84,0,0,0,.24-.66A.82.82,0,0,0,1368.08,143.08Zm-62.19-38.92,10.35-10.35,4.54,6.43-8.46,8.46Zm17.51,12.35-9.69-6.84,8-8,6.83,9.69Zm22.82-9.67a5,5,0,0,1,7,7.08l-6.82,6.82-7.06-7.06Zm-19,33.1a4.89,4.89,0,0,1-3.48,1.42,5,5,0,0,1-3.54-8.52l5.55-5.55,7.06,7.06Zm6.78-6.77-7.07-7.06,11.25-11.25,7.06,7.06Zm9.59,3.55,5.2-5.2,9.69,6.84-8,8Zm12.35,17.5-4.53-6.43,8.45-8.45,6.43,4.53Z" style="fill:#e1e1e1"/><polygon points="603.72 399.79 605 403.24 608.44 404.51 605 405.79 603.72 409.23 602.45 405.79 599 404.51 602.45 403.24 603.72 399.79" style="fill:#e1e1e1"/><polygon points="169.44 288.38 170.72 291.83 174.17 293.11 170.72 294.38 169.44 297.83 168.17 294.38 164.72 293.11 168.17 291.83 169.44 288.38" style="fill:#e1e1e1"/><polygon points="1246.72 398.79 1248 402.24 1251.44 403.51 1248 404.79 1246.72 408.23 1245.45 404.79 1242 403.51 1245.45 402.24 1246.72 398.79" style="fill:#e1e1e1"/><polygon points="1345.72 250.79 1347 254.24 1350.44 255.51 1347 256.79 1345.72 260.23 1344.45 256.79 1341 255.51 1344.45 254.24 1345.72 250.79" style="fill:#e1e1e1"/><polygon points="428.72 146.79 430 150.24 433.44 151.51 430 152.79 428.72 156.23 427.45 152.79 424 151.51 427.45 150.24 428.72 146.79" style="fill:#e1e1e1"/><polygon points="970.39 193.07 971.66 196.52 975.11 197.79 971.66 199.07 970.39 202.52 969.11 199.07 965.67 197.79 969.11 196.52 970.39 193.07" style="fill:#e1e1e1"/><path d="M383.72,379.56l.34.91.16.43.43.16.91.34-.91.34-.43.16-.16.43-.34.91-.34-.91-.15-.43-.44-.16-.91-.34.91-.34.44-.16.15-.43.34-.91m0-2.88-1.27,3.44L379,381.4l3.45,1.28,1.27,3.44,1.28-3.44,3.44-1.28L385,380.12l-1.28-3.44Z" style="fill:#e1e1e1"/><path d="M164.72,110.56l.34.91.16.43.43.16.91.34-.91.34-.43.16-.16.43-.34.91-.34-.91-.15-.43-.44-.16-.91-.34.91-.34.44-.16.15-.43.34-.91m0-2.88-1.27,3.44L160,112.4l3.45,1.28,1.27,3.44,1.28-3.44,3.44-1.28L166,111.12l-1.28-3.44Z" style="fill:#e1e1e1"/><path d="M1030.72,118.56l.34.91.16.43.43.16.91.34-.91.34-.43.16-.16.43-.34.91-.34-.91-.15-.43-.44-.16-.91-.34.91-.34.44-.16.15-.43.34-.91m0-2.88-1.27,3.44L1026,120.4l3.45,1.28,1.27,3.44,1.28-3.44,3.44-1.28-3.44-1.28-1.28-3.44Z" style="fill:#e1e1e1"/><polygon points="12.94 224.01 16.44 233.46 25.89 236.96 16.44 240.45 12.94 249.9 9.45 240.45 0 236.96 9.45 233.46 12.94 224.01" style="fill:#e1e1e1"/><g style="clip-path:url(#a)"><path d="M1085.87,269.48a227.31,227.31,0,0,1-20.24-27.11" style="fill:none;stroke:#fff;stroke-miterlimit:10;stroke-width:3px"/><path d="M1027.57,245.69c8.35,25.1,25.45,48.29,35.1,60.08" style="fill:none;stroke:#fff;stroke-miterlimit:10;stroke-width:3px"/><path d="M1075.09,256.08l1.59,2.12A83,83,0,0,1,1047.4,285q-1.32-2-2.64-4.13A73.79,73.79,0,0,0,1075.09,256.08Z" style="fill:#ebebec;stroke:#fff;stroke-miterlimit:10;stroke-width:3px;mix-blend-mode:screen"/><path d="M1076.38,324.36a52.18,52.18,0,0,1-9.69-4.59c-15.23-9.44,12-61.76,26.44-48.78.29.26.56.53.84.81" style="fill:none;stroke:#fff;stroke-miterlimit:10;stroke-width:3px"/><path d="M1071.29,211.51c-2.5,14.75-5.54,30.87-5.54,30.87s-7.62,19.8-27.46,14.7c0,0-13.5-6-11.9-20,1-8.46,6-25,11.93-37.52" style="fill:none;stroke:#fff;stroke-miterlimit:10;stroke-width:3px"/><path d="M1122.06,450.73c13.76,6,70.11-11.53,72.13-22.75,1.18-6.61,1.44-11.07.08-14" style="fill:none;stroke:#fff;stroke-miterlimit:10;stroke-width:3px"/><path d="M1066.61,386.37a31.08,31.08,0,0,0-7.59,15.2,4.26,4.26,0,0,0,.08,1.83" style="fill:none;stroke:#fff;stroke-miterlimit:10;stroke-width:3px"/><path d="M1068.4,409.78c.71-8,2.66-15.66,4.41-23.4l-5.15-1s-6.51,5.46-8.64,16.22c-.61,3.06,3.1,7.86,9,13.29C1068.12,413.15,1068.25,411.45,1068.4,409.78Z" style="fill:#ebebec;stroke:#fff;stroke-miterlimit:10;stroke-width:3px;mix-blend-mode:multiply"/><path d="M1188.85,410c-.7-.18-2.56-.59-5.33-1.17l0,.46a108.3,108.3,0,0,1-2.09,13.76c-1.37,5.95-3.3,11.75-4.93,17.63,9.76-4.17,17-8.83,17.72-12.73C1196.2,416.76,1195.53,411.73,1188.85,410Z" style="fill:#ebebec;stroke:#fff;stroke-miterlimit:10;stroke-width:3px;mix-blend-mode:multiply"/><path d="M1105.6,269.26c-6.83.57-12.54,2.25-14.88,5.88C1083,287.14,1063,381.3,1067,390.38c2.75,6.23,22.06,17.19,44.07,25.14,5,1.78,9.65,2.8,14.71,4.19,5.18.84,10.86,2.08,16.1,2.51,23.32,1.92,45.43,0,50.53-4.54,7.43-6.59,28.31-100.57,26.29-114.68-.62-4.37-5.29-8.34-11.45-11.74" style="fill:none;stroke:#fff;stroke-miterlimit:10;stroke-width:3px"/><path d="M1100.14,256a17.33,17.33,0,0,1-3.41-.4h0a17.56,17.56,0,0,1-13.42-20.89l2.62-12a17.56,17.56,0,0,1,20.89-13.42" style="fill:none;stroke:#fff;stroke-miterlimit:10;stroke-width:3px"/><path d="M1099.66,219.55a3.58,3.58,0,1,1-2.74-4.26A3.58,3.58,0,0,1,1099.66,219.55Z" style="fill:none;stroke:#fff;stroke-miterlimit:10;stroke-width:3px"/><path d="M1095.81,234.13a3.58,3.58,0,1,1-2.74-4.26A3.59,3.59,0,0,1,1095.81,234.13Z" style="fill:none;stroke:#fff;stroke-miterlimit:10;stroke-width:3px"/><path d="M1216.31,281.3a17.49,17.49,0,0,0,3.26,1.05h0a17.56,17.56,0,0,0,20.89-13.42l2.62-12A17.55,17.55,0,0,0,1229.66,236" style="fill:none;stroke:#fff;stroke-miterlimit:10;stroke-width:3px"/><path d="M1231.9,248.34a3.58,3.58,0,1,0,4.26-2.73A3.59,3.59,0,0,0,1231.9,248.34Z" style="fill:none;stroke:#fff;stroke-miterlimit:10;stroke-width:3px"/><path d="M1229.34,263.2a3.58,3.58,0,1,0,4.27-2.73A3.6,3.6,0,0,0,1229.34,263.2Z" style="fill:none;stroke:#fff;stroke-miterlimit:10;stroke-width:3px"/><path d="M1188,173.75a72.61,72.61,0,0,0-8.06-2.3,75.54,75.54,0,0,0-8.28-1.26c-35.57-3.33-61.66,21.52-68.08,51-7.29,33.5-6.41,48,21.9,64.24a91.86,91.86,0,0,0,28,10,84.42,84.42,0,0,0,28.55,2.36c32.48-3,39.33-15.82,46.62-49.32C1235.08,218.94,1221.68,185.5,1188,173.75Z" style="fill:none;stroke:#fff;stroke-miterlimit:10;stroke-width:3px"/><path d="M1217.82,249.67c-6,27.55-34.35,44.76-63.33,38.45s-47.61-33.75-41.62-61.29,34.35-44.76,63.33-38.45S1223.82,222.13,1217.82,249.67Z" style="fill:none;stroke:#fff;stroke-miterlimit:10;stroke-width:3px"/><path d="M1214.58,223.59a41.1,41.1,0,0,1-1.45,20.73c-5.54,16.35-21.5,26.67-38.28,27.8-15.31,1-33.3-3.15-44.78-13.9-17.43-16.33-13.83-40.93.06-57.42a46.05,46.05,0,0,0-13.43,23.7c-5.63,25.88,11.88,51.66,39.1,57.59s53.87-10.25,59.51-36.12A45.91,45.91,0,0,0,1214.58,223.59Z" style="fill:#ebebec;mix-blend-mode:screen"/><path d="M1183.94,320.17l-9.55-2.08-50.59-11-9.54-2.08c-9.46-2.06-12.59,4.91-15,10.47L1092,349.1l-5.74,26.36-.21,1,.19,0c-.08,5.86.37,12.79,9.3,14.73l9.55,2.08,50.59,11,9.54,2.08c8.94,1.95,12.23-4.17,14.59-9.53l.19,0,.21-1,5.74-26.36,7.32-33.63C1193.35,329.87,1193.39,322.23,1183.94,320.17Z" style="fill:none;stroke:#fff;stroke-miterlimit:10;stroke-width:3px;mix-blend-mode:multiply"/><path d="M1173.06,375.28l-2.08-.46-11-2.39-2.08-.46c-2.06-.44-2.75,1.07-3.27,2.28l-1.59,7.32-1.25,5.74,0,.22h0c0,1.27.08,2.78,2,3.2l2.08.46,11,2.39,2.08.46c2,.42,2.66-.91,3.18-2.08h0l0-.21,1.25-5.74,1.59-7.32C1175.11,377.39,1175.12,375.72,1173.06,375.28Z" style="fill:#fff"/><path d="M1150.74,370.42l-2.08-.46-11-2.39-2.07-.46c-2.06-.44-2.75,1.08-3.27,2.28l-1.59,7.33-1.25,5.74,0,.21h0c0,1.27.08,2.78,2,3.21l2.08.45,11,2.4,2.08.45c1.95.42,2.66-.91,3.18-2.08h0l0-.21,1.25-5.74,1.6-7.32C1152.79,372.53,1152.8,370.87,1150.74,370.42Z" style="fill:#fff"/><path d="M1149.65,357.69a4.76,4.76,0,0,1-5.66,3.63h0a4.76,4.76,0,0,1-3.63-5.65h0A4.75,4.75,0,0,1,1146,352h0a4.75,4.75,0,0,1,3.63,5.65Z" style="fill:none;stroke:#fff;stroke-miterlimit:10;stroke-width:3px"/><path d="M1162.48,360.48a4.74,4.74,0,0,1-5.65,3.63h0a4.74,4.74,0,0,1-3.63-5.65h0a4.75,4.75,0,0,1,5.65-3.63h0a4.75,4.75,0,0,1,3.63,5.65Z" style="fill:none;stroke:#fff;stroke-miterlimit:10;stroke-width:3px"/><path d="M1175.32,363.28a4.76,4.76,0,0,1-5.66,3.63h0a4.76,4.76,0,0,1-3.63-5.65h0a4.76,4.76,0,0,1,5.66-3.64h0a4.76,4.76,0,0,1,3.63,5.66Z" style="fill:none;stroke:#fff;stroke-miterlimit:10;stroke-width:3px"/><path d="M1106.06,341l-8.38,38.5,26.7,5.81,8.38-38.49Zm1.44,37.14-7-1.53,1.52-7,7,1.53Zm1.79-8.23-7-1.52,1.52-7,7,1.52Zm1.82-8.37-7-1.52,1.52-7,7,1.53Zm1.79-8.22-7-1.52,1.52-7,7,1.52Zm2.36,26.51-7-1.53,1.52-7,7,1.53Zm1.79-8.23-7-1.52,1.52-7,7,1.52Zm1.82-8.37-7-1.52,1.52-7,7,1.53Zm1.79-8.22-7-1.52,1.52-7,7,1.52Zm2.36,26.5-7-1.52,1.52-7,7,1.52Zm1.79-8.22-7-1.52,1.52-7,7,1.52Zm1.82-8.37-7-1.52,1.52-7,7,1.53Zm1.79-8.22-7-1.52,1.52-7,7,1.52Z" style="fill:#ebebec;stroke:#fff;stroke-miterlimit:10;stroke-width:3px"/><path d="M1180.72,327.44l-4-.88-21.44-4.67-4-.88-4.47-1-4-.88-21.44-4.67-4-.88c-4-.88-5.1,1-5.93,2.46l-2,9.2-1.57,7.21-.06.26.08,0c.15,1.64.56,3.6,4.34,4.42l4,.88,21.44,4.67,4,.88,4.47,1,4,.89,21.44,4.66,4,.88c3.79.83,5-.78,5.79-2.21l.08,0,.06-.27,1.57-7.21,2-9.2C1185,330.45,1184.72,328.31,1180.72,327.44Zm.54,13.25-1.19,5.48,0,.2H1180c-.62,1.08-1.51,2.31-4.39,1.68l-3.07-.67-16.28-3.54-3.08-.67-3.39-.74-3.07-.67-16.28-3.54-3.08-.67c-2.87-.63-3.18-2.11-3.29-3.36H1124l0-.21,1.19-5.47,1.52-7c.63-1.13,1.46-2.54,4.5-1.87l3.08.66,16.28,3.55,3.07.67,3.39.74,3.07.66,16.28,3.55,3.08.67c3,.66,3.21,2.29,3.31,3.57Z" style="fill:#fff;mix-blend-mode:screen"/><path d="M1044.61,486.55c9.46,1.27,20-4.05,19.88-14.86-.21-14.17-18-26.37-31.93-23.85-4.67,10.41-8.06,21-8.2,29.91v.17C1030.37,482.2,1037.46,485.59,1044.61,486.55Z" style="fill:#ebebec;stroke:#fff;stroke-miterlimit:10;stroke-width:3px"/><path d="M1068.05,445.44c11.49,6.1,23.75,15.26,29.63,27.36,9.59-12.63,19.82-26.56,17.68-31.59-8.71-20.56-38.46-38.07-38.46-38.07s-11.83-4.81-15.72-1.37c-2.28,2-14.27,18-24,36.52C1047.63,436.74,1059.12,440.7,1068.05,445.44Z" style="fill:none;stroke:#fff;stroke-miterlimit:10;stroke-width:3px"/><path d="M1122.86,574.64c-5.07-3.52-9.56-8.42-10.8-14.66a25.07,25.07,0,0,1-.32-7.22c.15-.4.31-.8.49-1.18,20.23-42.53,25.19-42.13,21.52-59.42S1123,448.69,1128.12,444c16.47-15.07,50.81-18.63,50.81-18.63s12.75.54,14.87,5.29,13.15,58.74,1.89,84.41c-9,20.61-35.66,50.27-45.81,61.17C1142,581.74,1131.16,580.4,1122.86,574.64Z" style="fill:#d9d9db;stroke:#fff;stroke-miterlimit:10;stroke-width:3px"/><path d="M1169.4,467.5c-13,.77-28,4-38.33,12.57-3.47-15.47-7-32.39-3-36.09,16.47-15.07,50.81-18.63,50.81-18.63s12.75.54,14.87,5.29c1.23,2.77,5.5,22.29,6.61,43.18C1191.58,468.08,1179.48,466.9,1169.4,467.5Z" style="fill:#ebebec;stroke:#fff;stroke-miterlimit:10;stroke-width:3px"/><path d="M1133.75,492.16c-3.66-17.31-10.77-43.47-5.63-48.18,16.47-15.07,50.81-18.63,50.81-18.63a41.91,41.91,0,0,1,9.44,1.6,19.58,19.58,0,0,0-5,0,52.89,52.89,0,0,0-17.75,5.78c-4.6,2.37-10.33,5.42-12.86,10.21-4.31,8.14-.42,19.3,1.37,27.7,2.43,11.35,4.52,24.11,2.45,35.68-2,11.32-8.63,21.36-15.32,30.47-3.31,4.5-6.75,8.9-10.11,13.35-2.68,3.54-6,7-8,11-3.31,6.51-1.32,11.54,2.8,15.37a29.47,29.47,0,0,1-3-1.84c-5.07-3.52-9.56-8.42-10.8-14.66a25.07,25.07,0,0,1-.32-7.22c.15-.4.31-.8.49-1.18C1132.46,509.05,1137.42,509.45,1133.75,492.16Z" style="fill:#d9d9db;stroke:#fff;stroke-miterlimit:10;stroke-width:3px;opacity:0.5;mix-blend-mode:multiply"/><path d="M1189.26,431.89s13.83,59.32,4.81,80.41-45.81,61.1-45.81,61.1,37.55-46.58,43.54-66.78-15.88-71.69-15.88-71.69Z" style="fill:#ebebec;stroke:#fff;stroke-miterlimit:10;stroke-width:3px;opacity:0.5;mix-blend-mode:screen"/><path d="M1227.16,301.64a226.52,226.52,0,0,0,29.68-16.24" style="fill:none;stroke:#fff;stroke-miterlimit:10;stroke-width:3px"/><path d="M1290.08,304.24c-18,19.36-43.23,33.34-56.9,40.06" style="fill:none;stroke:#fff;stroke-miterlimit:10;stroke-width:3px"/><path d="M1242.53,293.94l-2.32,1.26a83,83,0,0,0,15.47,36.59c1.36-.86,2.74-1.75,4.12-2.66A73.91,73.91,0,0,1,1242.53,293.94Z" style="fill:#ebebec;stroke:#fff;stroke-miterlimit:10;stroke-width:3px;mix-blend-mode:screen"/><path d="M1213,355.5a51.74,51.74,0,0,0,10.71-.14c17.77-2.26,14.76-61.17-3.77-55.36-.37.12-.73.24-1.1.38" style="fill:none;stroke:#fff;stroke-miterlimit:10;stroke-width:3px"/><path d="M1264.52,255c-3.86,14.46-7.8,30.38-7.8,30.38s-1.3,21.18,18.87,24.78c0,0,14.78.15,19.15-13.27,2.64-8.09,4.92-25.19,4.74-39.08" style="fill:none;stroke:#fff;stroke-miterlimit:10;stroke-width:3px"/><path d="M1089.88,177.84c-3-1.37-6.54-.41-9.08,1.37-1,.68-7.73,6.26-7.52,7-1.44-4.85.13-19,.49-20.79.48-2.4,1.34-4.79,1.68-7.21a10,10,0,0,0-.21-5.15q-3.93-4.65-7-.4s0,0,0,0a30.79,30.79,0,0,0-2.11,4.36,28.09,28.09,0,0,0-1.58,4.53l-.54,1.68c-.07.21-.13.44-.2.66,0-5.34,1.27-10.61.84-16-.24-2.94-6.78-4.38-8.8-2.78-3.53,2.78-1,20.38-1.79,24.66-.28-2-1.36-16.13-1.41-18.2-.07-2.87-2.38-6.54-5.75-5.05-3.8,1.68-5.38,5.14-5.47,9.33,0,.32,3,16.84,3,17.18-.62-1.16-3.53-18.73-4.82-18.94-5.42-.89-7.17,5.23-7.75,9.24a54.18,54.18,0,0,0,3.43,28.35c2,4.85,4,9.87,7.51,13.87,6,7,18.62,11.55,27.38,7.52,6.94-3.19,8.91-10.61,11.9-17a52.71,52.71,0,0,1,3.94-6.78c1.71-2.58,4.67-5.22,5.35-8.33A2.54,2.54,0,0,0,1089.88,177.84Z" style="fill:none;stroke:#fff;stroke-miterlimit:10;stroke-width:3px"/><path d="M1044,185.24a13.37,13.37,0,0,1,3.85-4.79,18.61,18.61,0,0,1,11.51-4.15,15.86,15.86,0,0,1,3.08.23,17.84,17.84,0,0,1,3,.84c-1,.3-2,.41-2.94.63s-1.9.37-2.82.64a47.33,47.33,0,0,0-5.36,1.58,44.44,44.44,0,0,0-5.15,2.19C1047.39,183.25,1045.72,184.18,1044,185.24Z" style="fill:#fff"/><path d="M1075.06,185.45c-1.84.85-3.54,1.68-5.12,2.61a19.14,19.14,0,0,0-4.17,3.18,12.4,12.4,0,0,0-2.69,4.26,26.84,26.84,0,0,0-1.25,5.49,10.2,10.2,0,0,1,1.78-11.83,13.32,13.32,0,0,1,11.45-3.71Z" style="fill:#fff"/><path d="M1261.8,216.88c3.25,0,6.12,2.34,7.69,5,.59,1,4.43,8.9,3.94,9.47,3.32-3.82,7.76-17.3,8.19-19.12.56-2.38.78-4.91,1.47-7.26a10,10,0,0,1,2.33-4.59q5.52-2.61,6.5,2.53l0,.06a29.88,29.88,0,0,1,.1,4.83,27.25,27.25,0,0,1-.44,4.78c-.07.65-.15,1.24-.21,1.75,0,.22-.06.46-.09.69,2.18-4.88,3.26-10.18,5.89-14.9,1.43-2.58,8-1.17,9.16,1.13,2.05,4-7.59,18.94-8.62,23.17,1.08-1.72,7.93-14.1,8.84-16,1.26-2.58,4.88-5,7.33-2.2,2.75,3.1,2.75,6.91,1.09,10.76-.13.29-9.69,14.08-9.84,14.39,1-.8,11-15.56,12.26-15.22,5.3,1.44,4.35,7.73,3.21,11.62a54.09,54.09,0,0,1-14.91,24.36c-3.81,3.59-7.77,7.3-12.59,9.5-8.37,3.82-21.74,2.76-28-4.55-5-5.79-3.69-13.35-3.77-20.37a53.79,53.79,0,0,0-.76-7.81c-.49-3.06-2.08-6.69-1.41-9.81A2.54,2.54,0,0,1,1261.8,216.88Z" style="fill:none;stroke:#fff;stroke-miterlimit:10;stroke-width:3px"/><path d="M1300.71,241.63c-1.15-1.7-2.29-3.24-3.49-4.7a45,45,0,0,0-3.76-4.14,48.4,48.4,0,0,0-4.23-3.67c-.72-.62-1.52-1.13-2.29-1.74s-1.62-1.1-2.42-1.8a16.67,16.67,0,0,1,3,.47,15.91,15.91,0,0,1,2.89,1.06,18.6,18.6,0,0,1,8.75,8.56A13.36,13.36,0,0,1,1300.71,241.63Z" style="fill:#fff"/><path d="M1272.12,230a13.28,13.28,0,0,1,8.86,8.13,10.36,10.36,0,0,1,.17,6.44,10.57,10.57,0,0,1-3.46,5.07,27.29,27.29,0,0,0,1.14-5.52,12.36,12.36,0,0,0-.68-5,18.83,18.83,0,0,0-2.47-4.62C1274.63,233,1273.43,231.5,1272.12,230Z" style="fill:#fff"/></g><circle cx="43.44" cy="343.79" r="26.87" style="fill:none;stroke:#e1e1e1;stroke-miterlimit:10;stroke-width:4px"/><path d="M986.11,383.61c-1.56-10.6-9.6-18.22-18.1-17.31h0l-.25,0-4.14.51c-.27,0-.54.06-.82.1l-.14,0h-.1c-8.55,1.42-14.18,11.13-12.61,21.83,1.53,10.36,9.25,17.88,17.55,17.35h0c.34,0,.69-.06,1-.11l.24,0,3.86-.46.64-.08C982,404.2,987.7,394.41,986.11,383.61Zm-13.34,18.53c-7.2,1.06-14.11-5.34-15.43-14.3S960.8,370.76,968,369.7s14.11,5.35,15.43,14.3S980,401.08,972.77,402.14Z" style="fill:#e1e1e1"/><path d="M962.69,377.17,964,377l1.33-.18q1.26-.18,2.58-.42l1.4-.25a6,6,0,0,1,4.23.57,4.62,4.62,0,0,1,1.84,3.41,4.89,4.89,0,0,1-.54,3.43,4.25,4.25,0,0,1-2.76,1.81v.08a5.19,5.19,0,0,1,3.67.91,5,5,0,0,1,1.69,3.32,4.64,4.64,0,0,1-.89,4,7.36,7.36,0,0,1-4.45,1.86c-.53.08-1.21.17-2,.26l-1.7.21-1.37.23c-.48.08-1,.17-1.49.28l-.17-1.06c.79-.11,1.26-.31,1.43-.6a3.58,3.58,0,0,0,0-1.92l-1.91-13c-.13-.9-.32-1.44-.57-1.6a2.48,2.48,0,0,0-1.52-.13Zm4.69.44,1.15,7.81,1.61-.24a3,3,0,0,0,2.31-1.27,4.91,4.91,0,0,0,.3-3.11,4.84,4.84,0,0,0-1.17-2.92,3.44,3.44,0,0,0-2.83-.47Zm1.31,8.88,1.21,8.26,1.44-.22a3.89,3.89,0,0,0,2.81-1.34,4.64,4.64,0,0,0,.39-3.25,4.89,4.89,0,0,0-1.36-3.11,3.89,3.89,0,0,0-3.1-.54Z" style="fill:#e1e1e1"/><rect x="965.66" y="374.33" width="1.41" height="2.58" transform="matrix(0.99, -0.15, 0.15, 0.99, -44.38, 144.63)" style="fill:#e1e1e1"/><rect x="968.77" y="395.2" width="1.41" height="3.07" transform="translate(-47.42 145.31) rotate(-8.37)" style="fill:#e1e1e1"/><rect x="968.42" y="373.89" width="1.41" height="2.58" transform="translate(-44.28 145.03) rotate(-8.37)" style="fill:#e1e1e1"/><rect x="971.53" y="394.77" width="1.41" height="3.07" transform="translate(-47.32 145.71) rotate(-8.37)" style="fill:#e1e1e1"/><path d="M1342.22,382.79l1.08.13,6.4.76.41.07c.57.09,1.15.14,1.72.18h0c13.77.89,26.6-11.61,29.14-28.82,2.61-17.77-6.75-33.89-21-36.25h0l-.17,0-.23,0c-.46-.07-.91-.12-1.37-.16l-6.86-.85-.43,0H1351c-14.12-1.52-27.48,11.15-30.07,28.74C1318.24,364.4,1327.8,380.67,1342.22,382.79Zm-16.88-35.67c2.19-14.88,13.66-25.51,25.62-23.75s19.89,15.25,17.7,30.12S1355,379,1343,377.24,1323.15,362,1325.34,347.12Z" style="fill:#e1e1e1"/><path d="M1348.2,330.91c.58.49,1.17,1,1.75,1.43s1.17.91,1.76,1.35q1.69,1.26,3.53,2.54l1.93,1.35q3.7,2.76,4.3,5.64t-1.83,6.16a8.18,8.18,0,0,1-4.68,3.39,7,7,0,0,1-5.36-1.11l-.08.11a8.53,8.53,0,0,1,3.23,5.37,8.2,8.2,0,0,1-1.91,5.88c-1.71,2.3-3.61,3.51-5.7,3.61s-4.56-.92-7.41-3c-.71-.53-1.61-1.22-2.7-2.09s-1.84-1.45-2.23-1.74c-.58-.43-1.21-.88-1.88-1.35s-1.36-1-2.08-1.43l1-1.43c1,.79,1.85,1.11,2.39,1s1.31-.88,2.3-2.21l13-17.47c.91-1.21,1.31-2.07,1.22-2.56s-.64-1.13-1.64-1.93Zm5,6-7.81,10.51,2.16,1.61a5,5,0,0,0,4.21,1.22q1.92-.5,4-3.29c1.44-1.94,2.13-3.54,2-4.81s-1-2.55-2.77-3.88Zm-8.89,12L1336,360l1.94,1.44q2.83,2.12,4.89,1.72t4.26-3.37q2.27-3,2.06-5.24c-.14-1.46-1.14-2.89-3-4.28Z" style="fill:#e1e1e1"/><rect x="1352.2" y="332.22" width="4.28" height="2.34" transform="translate(278.7 1221.3) rotate(-53.37)" style="fill:#e1e1e1"/><rect x="1330.63" y="360.68" width="5.1" height="2.34" transform="translate(247.33 1215.8) rotate(-53.37)" style="fill:#e1e1e1"/><rect x="1355.96" y="334.95" width="4.28" height="2.34" transform="translate(278.03 1225.42) rotate(-53.37)" style="fill:#e1e1e1"/><rect x="1334.39" y="363.41" width="5.1" height="2.34" transform="translate(246.65 1219.92) rotate(-53.37)" style="fill:#e1e1e1"/></g></svg>