<svg id="Capa_1" data-name="Capa 1" xmlns="http://www.w3.org/2000/svg" viewBox="0 0 166.62 166.62"><defs><style>.cls-1{fill:#2b2a65;}.cls-2{fill:#e1e1e1;}</style></defs><circle class="cls-1" cx="83.31" cy="83.31" r="83.31"/><path class="cls-2" d="M132.49,76.26c-4.23-28.78-26.09-49.51-49.19-47h-.1l-.7.09L71.27,30.73c-.74.06-1.48.15-2.23.26l-.38.07-.27,0h0C45.16,35,29.85,61.34,34.13,90.41c4.14,28.15,25.14,48.6,47.67,47.15h.06q1.41-.09,2.82-.3l.67-.12,10.47-1.24,1.76-.21C121.18,132.21,136.81,105.61,132.49,76.26ZM96.24,126.62C76.67,129.5,57.9,112.1,54.32,87.76s9.39-46.4,29-49.28S121.62,53,125.2,77.33,115.82,123.74,96.24,126.62Z"/><path class="cls-2" d="M68.85,58.77c1.24-.1,2.47-.23,3.68-.37s2.41-.3,3.6-.48q3.42-.49,7-1.14l3.8-.67q7.47-1.09,11.5,1.54t5,9.26q.83,5.66-1.48,9.33a11.55,11.55,0,0,1-7.5,4.92l0,.21q6.25-.44,10,2.49t4.6,9q1,7-2.43,10.77t-12.08,5.06q-2.14.32-5.55.71c-2.26.26-3.79.45-4.6.56-1.17.18-2.41.38-3.73.61s-2.67.48-4.06.76l-.45-2.86c2.13-.31,3.43-.86,3.89-1.65s.49-2.52.1-5.22L75,66.39Q74.43,62.7,73.41,62c-.67-.46-2-.57-4.13-.34ZM81.6,60l3.12,21.2,4.37-.64c3.08-.46,5.18-1.61,6.28-3.46s1.37-4.67.81-8.43S94.55,62.08,93,60.7s-4.11-1.8-7.69-1.28ZM85.15,84.1l3.3,22.42,3.91-.58q5.72-.84,7.64-3.66t1-8.83q-.92-6.15-3.68-8.44c-1.85-1.53-4.67-2-8.44-1.46Z"/><rect class="cls-2" x="76.91" y="51.04" width="3.83" height="7" transform="translate(-7.1 12.05) rotate(-8.37)"/><rect class="cls-2" x="85.36" y="107.76" width="3.83" height="8.35" transform="translate(-15.36 13.89) rotate(-8.37)"/><rect class="cls-2" x="84.42" y="49.85" width="3.83" height="7" transform="translate(-6.84 13.13) rotate(-8.37)"/><rect class="cls-2" x="92.86" y="106.57" width="3.83" height="8.35" transform="translate(-15.11 14.97) rotate(-8.37)"/></svg>