<svg id="Capa_1" data-name="Capa 1" xmlns="http://www.w3.org/2000/svg" viewBox="0 0 1405.77 113.44"><defs><style>.cls-1{fill:none;stroke:#e1e1e1;stroke-linecap:round;stroke-linejoin:round;stroke-width:4px;stroke-dasharray:10 20;}.cls-2{fill:#e1e1e1;}</style></defs><path class="cls-1" d="M1403.77,28.32s-85,80.9-254,83.09-291-94-426-94-248,40.09-380,69.24C301.35,96,248.21,93.1,195.6,84.85"/><path class="cls-2" d="M80.46,69.78l7.92,11.75,17.28,7L95,72.67A138.57,138.57,0,0,1,80.46,69.78Z"/><path class="cls-2" d="M134.2,18.06l-17.31-7L103,14a141.37,141.37,0,0,1,12.42,8Z"/><path class="cls-2" d="M63.27,16.81a12.56,12.56,0,1,0,6.86,6.75A12.52,12.52,0,0,0,63.27,16.81Zm2.38,14.53a7.66,7.66,0,0,1-10,4.22h0a7.65,7.65,0,1,1,5.74-14.19,7.66,7.66,0,0,1,4.23,10Z"/><path class="cls-2" d="M146.92,41.14a2.46,2.46,0,0,0-.93,4.74L176,58a2.45,2.45,0,0,0,1.88,0,2.51,2.51,0,0,0,1.32-1.34,2.47,2.47,0,0,0-1.36-3.21l-30-12.14A2.47,2.47,0,0,0,146.92,41.14Z"/><path class="cls-2" d="M181.69,75.65,150.41,63a2.36,2.36,0,0,0-1.88,0,2.46,2.46,0,0,0,0,4.54l31.27,12.66a2.45,2.45,0,0,0,1.88,0h0A2.38,2.38,0,0,0,183,78.85,2.45,2.45,0,0,0,183,77,2.51,2.51,0,0,0,181.69,75.65Z"/><path class="cls-2" d="M163.49,88.92l-30-12.14a2.48,2.48,0,0,0-.93-.18,2.44,2.44,0,0,0-2.27,1.53,2.46,2.46,0,0,0,1.35,3.2l30,12.15a2.45,2.45,0,0,0,1.88,0h0a2.46,2.46,0,0,0,0-4.54Z"/><path class="cls-2" d="M103.13,70.64l3.07.21c4.34.31,8.79.44,13.24.39a2.44,2.44,0,0,0,2.25-1.53l4.53-11.2,10.51,4.25a2.41,2.41,0,0,0,1.88,0,2.46,2.46,0,0,0,0-4.54L128.07,54l4.53-11.2a2.45,2.45,0,0,0-.55-2.67c-3.17-3.13-6.46-6.14-9.78-8.93l-2.36-2,33.46-7.08a2.59,2.59,0,0,0,.45-.14,2.46,2.46,0,0,0,0-4.54L118.31,3.12A2.41,2.41,0,0,0,116.88,3L86.64,9.39l-.42-.17A129.13,129.13,0,0,0,56,1.41,156.21,156.21,0,0,0,34.83,0q-3,0-6,.11A145.85,145.85,0,0,0,1.87,3.37,2.47,2.47,0,0,0,.18,4.84h0A2.45,2.45,0,0,0,.37,7.06,146.64,146.64,0,0,0,17.46,28.15a159.91,159.91,0,0,0,20.45,18A129.46,129.46,0,0,0,65.05,61.54l.42.17L82.74,87.34a2.5,2.5,0,0,0,1.11.9l35.43,14.4a2.41,2.41,0,0,0,1.88,0,2.48,2.48,0,0,0,1-.71,2.45,2.45,0,0,0,.13-2.93ZM117.17,8l27.29,11-29.7,6.28-.54-.39A133.74,133.74,0,0,0,98.07,14.71l-3.66-1.94Zm-96,16.93A159.77,159.77,0,0,1,8,9.37l-1.46-2L8.94,7A158.11,158.11,0,0,1,29.2,5c14.09-.49,35.21.67,55.79,9A124.55,124.55,0,0,1,112.5,29.68a2.38,2.38,0,0,0,.35.27l.1.07a149.65,149.65,0,0,1,13.74,11.71l.74.7-3.92,9.68L107.3,45.54a2.45,2.45,0,0,0-1.88,0,2.41,2.41,0,0,0-1.32,1.34,2.46,2.46,0,0,0,1.35,3.2l16.21,6.56-3.91,9.68h-1a152.84,152.84,0,0,1-18-1.14l-.13,0a2,2,0,0,0-.34,0A124.3,124.3,0,0,1,67.5,57.23C46.93,48.9,30.94,35.05,21.15,24.89ZM86.4,84l-13-19.29,4,1.15a135.06,135.06,0,0,0,18.66,4l.66.09,17,25.17Z"/></svg>