<svg xmlns="http://www.w3.org/2000/svg" viewBox="0 0 783.44 812.07"><defs><style>.cls-1{isolation:isolate;}.cls-2{fill:#e1e1e1;}.cls-11,.cls-3,.cls-4,.cls-6{fill:none;}.cls-3{stroke:#e1e1e1;stroke-width:4px;}.cls-3,.cls-4,.cls-5,.cls-6,.cls-9{stroke-miterlimit:10;}.cls-4,.cls-5,.cls-6,.cls-9{stroke:#fff;stroke-width:3px;}.cls-5,.cls-7,.cls-9{fill:#ebebec;}.cls-10,.cls-5,.cls-7{mix-blend-mode:screen;}.cls-6{mix-blend-mode:multiply;}.cls-10,.cls-8{fill:#fff;}</style></defs><g class="cls-1"><g id="Capa_1" data-name="Capa 1"><path class="cls-2" d="M155.29,99.57c-1.41-3.15-4.44-5.5-8.75-6.8a37.49,37.49,0,0,0-14.07-1l-.31,0-.27-.16a29.1,29.1,0,0,0-43.33,19.46l-.06.31-.23.21a37.67,37.67,0,0,0-8.64,11.16c-1.88,4.08-2.14,7.91-.72,11.06,2.27,5.05,8.45,7.89,17.41,8a50.58,50.58,0,0,0,5.42-.24l.31,0,.26.16a29.1,29.1,0,0,0,43.33-19.47l.06-.3.23-.21a47.39,47.39,0,0,0,3.78-3.9C155.58,111.13,157.56,104.62,155.29,99.57Zm-52.12-5.64a26.35,26.35,0,0,1,11.11-3.78l.78-.08.23.75A6.62,6.62,0,0,1,109,99.35a6.65,6.65,0,0,1-6.19-4.27l-.28-.74Zm-6.82,45.61c-7.88-.1-13.45-2.51-15.3-6.62-1.14-2.55-.9-5.62.72-9.11a29.1,29.1,0,0,1,4.6-6.84l1.6-1.84.07,2.44a29,29,0,0,0,8.5,19.72l.63.6L99,139.6Zm45.07-11.73a26.76,26.76,0,0,1-32.2,14.46l-3.44-1.06,3.52-.78A86.15,86.15,0,0,0,140,126.65l2.93-2.13Zm2.14-7.34,0,.35-.27.24a76.24,76.24,0,0,1-18.88,11.84A76.09,76.09,0,0,1,103,139.15l-.35,0-.29-.19a26.69,26.69,0,0,1-2.8-42.4l.91-.8.56,1.07a9,9,0,0,0,16.91-4.13,8.33,8.33,0,0,0-.14-1.57L117.57,90l1.21.08a26.76,26.76,0,0,1,25.05,26.67A26.14,26.14,0,0,1,143.56,120.47Zm4.38-4.1-1.68,1.88-.1-2.37a28.93,28.93,0,0,0-8.5-19.71c-.21-.21-.41-.41-.63-.61l-1.77-1.67,2.44,0a28.82,28.82,0,0,1,8.16,1.1c3.69,1.11,6.14,3,7.29,5.52C155,104.64,153.09,110.41,147.94,116.37Z"/><path class="cls-2" d="M109,110.71a6.88,6.88,0,1,0,6.88,6.87A6.88,6.88,0,0,0,109,110.71Zm0,11.4a4.53,4.53,0,1,1,4.53-4.53A4.54,4.54,0,0,1,109,122.11Z"/><path class="cls-2" d="M131.77,111.15a5.58,5.58,0,1,0,5.58,5.58A5.59,5.59,0,0,0,131.77,111.15Zm0,8.81a3.23,3.23,0,1,1,3.23-3.23A3.23,3.23,0,0,1,131.77,120Z"/><circle class="cls-3" cx="58.01" cy="776.72" r="26.87"/><circle class="cls-3" cx="743.81" cy="763.92" r="17.07"/><polygon class="cls-2" points="702.28 771.72 703.56 775.17 707 776.44 703.56 777.72 702.28 781.16 701.01 777.72 697.56 776.44 701.01 775.17 702.28 771.72"/><polygon class="cls-2" points="27.28 448.72 28.56 452.17 32 453.44 28.56 454.72 27.28 458.16 26.01 454.72 22.56 453.44 26.01 452.17 27.28 448.72"/><path class="cls-2" d="M502.28,791.49l.34.91.16.43.43.16.91.34-.91.34-.43.16-.16.43-.34.91-.34-.91-.15-.43-.44-.16-.91-.34.91-.34.44-.16.15-.43.34-.91m0-2.88L501,792.06l-3.45,1.27,3.45,1.28,1.27,3.44,1.28-3.44,3.44-1.28-3.44-1.27-1.28-3.45Z"/><path class="cls-2" d="M693.28,442.49l.34.91.16.43.43.16.91.34-.91.34-.43.16-.16.43-.34.91-.34-.91-.15-.43-.44-.16-.91-.34.91-.34.44-.16.15-.43.34-.91m0-2.88L692,443.06l-3.45,1.27,3.45,1.28,1.27,3.44,1.28-3.44,3.44-1.28-3.44-1.27-1.28-3.45Z"/><path class="cls-2" d="M653.28,132.49l.34.91.16.43.43.16.91.34-.91.34-.43.16-.16.43-.34.91-.34-.91-.15-.43-.44-.16-.91-.34.91-.34.44-.16.15-.43.34-.91m0-2.88L652,133.06l-3.45,1.27,3.45,1.28,1.27,3.44,1.28-3.44,3.44-1.28-3.44-1.27-1.28-3.45Z"/><polygon class="cls-2" points="41.5 255.94 45 265.39 54.45 268.89 45 272.38 41.5 281.83 38.01 272.38 28.56 268.89 38.01 265.39 41.5 255.94"/><polygon class="cls-2" points="719.06 220.46 722.55 229.9 732 233.4 722.55 236.9 719.06 246.34 715.56 236.9 706.11 233.4 715.56 229.9 719.06 220.46"/><polygon class="cls-2" points="249.06 778.68 250.33 782.12 253.78 783.4 250.33 784.67 249.06 788.12 247.78 784.67 244.33 783.4 247.78 782.12 249.06 778.68"/><path class="cls-2" d="M715.31,131.49l-18.89-13.33a.84.84,0,0,0-1.07.1l-2.51,2.5-4.2-4.21,13-13a6.66,6.66,0,0,0-9.41-9.44l0,0-13,13L675,102.92l2.51-2.51a.83.83,0,0,0,.09-1.07L664.27,80.45a.82.82,0,0,0-.61-.35.84.84,0,0,0-.66.24L651.24,92.1a.83.83,0,0,0,.11,1.27l18.89,13.33a.86.86,0,0,0,1.08-.09l2.5-2.51,4.21,4.21-5.35,5.35v.54h-.55l-5.89,5.9a6.69,6.69,0,0,0,0,9.4,6.68,6.68,0,0,0,9.43,0l11.76-11.77,4.21,4.21-2.5,2.51a.82.82,0,0,0-.09,1.07l13.32,18.89a.86.86,0,0,0,.62.35h.07a.82.82,0,0,0,.59-.24l11.75-11.75a.8.8,0,0,0,.24-.66A.86.86,0,0,0,715.31,131.49ZM653.13,92.58l10.35-10.36L668,88.65l-8.46,8.46Zm17.5,12.35-9.69-6.84,8-8,6.84,9.69Zm22.82-9.68a5,5,0,0,1,7,7.09l-6.81,6.82-7.06-7.06Zm-19,33.11a5,5,0,0,1-7-7.1L673,115.7l7.06,7.06Zm6.77-6.78-7.06-7.06,11.24-11.24,7.06,7.06Zm9.6,3.55,5.19-5.19,9.69,6.83-8.05,8Zm12.35,17.51-4.54-6.43,8.46-8.46,6.43,4.54Z"/><path class="cls-2" d="M288,127l.34.92.16.43.43.16.91.34-.91.33-.43.16-.16.43-.34.92-.34-.92-.16-.43-.43-.16-.91-.33.91-.34.43-.16.16-.43L288,127m0-2.88-1.28,3.45-3.44,1.28,3.44,1.27,1.28,3.45,1.27-3.45,3.45-1.27-3.45-1.28L288,124.09Z"/><path class="cls-4" d="M357.74,196.8A164,164,0,0,1,343,177.1"/><path class="cls-4" d="M315.36,179.51c6.07,18.24,18.51,35.09,25.52,43.67"/><path class="cls-5" d="M349.9,187.07l1.16,1.53a60.44,60.44,0,0,1-21.28,19.51c-.64-1-1.28-2-1.92-3A53.59,53.59,0,0,0,349.9,187.07Z"/><path class="cls-4" d="M350.84,236.68a37.22,37.22,0,0,1-7-3.33c-11.07-6.86,8.72-44.89,19.22-35.45.2.19.41.38.6.58"/><path class="cls-4" d="M347.14,154.67c-1.81,10.72-4,22.44-4,22.44s-5.54,14.39-20,10.68c0,0-9.81-4.37-8.64-14.56.7-6.15,4.36-18.14,8.67-27.27"/><path class="cls-4" d="M435.9,313.28a3.32,3.32,0,0,0,.56-1.28c.86-4.8,1.05-8.05.06-10.15"/><path class="cls-4" d="M379.09,327.17c1.78.78,4.72,1.06,8.35.94"/><path class="cls-4" d="M343.74,281.76a22.65,22.65,0,0,0-5.52,11.05,3,3,0,0,0,.06,1.32"/><path class="cls-6" d="M343.74,281.76a22.65,22.65,0,0,0-5.52,11.05,3.28,3.28,0,0,0,.15,1.64"/><path class="cls-4" d="M372.08,196.64c-5,.42-9.12,1.63-10.81,4.28-5.6,8.72-20.19,77.15-17.27,83.75,2,4.53,16,12.49,32,18.27,3.6,1.3,7,2,10.69,3.05,3.77.61,7.89,1.51,11.7,1.82,16.95,1.4,33,0,36.73-3.3,5.4-4.78,20.57-73.09,19.11-83.35-.45-3.17-3.85-6.06-8.32-8.53"/><path class="cls-4" d="M368.11,187a13.2,13.2,0,0,1-2.48-.29h0a12.76,12.76,0,0,1-9.75-15.18l1.9-8.75A12.76,12.76,0,0,1,373,153"/><path class="cls-4" d="M367.76,160.51a2.6,2.6,0,1,1-2-3.09A2.61,2.61,0,0,1,367.76,160.51Z"/><path class="cls-4" d="M365,171.11a2.6,2.6,0,1,1-2-3.1A2.6,2.6,0,0,1,365,171.11Z"/><path class="cls-4" d="M452.54,205.39a12.38,12.38,0,0,0,2.37.76h0a12.76,12.76,0,0,0,15.19-9.75l1.9-8.75a12.76,12.76,0,0,0-9.75-15.18"/><path class="cls-4" d="M463.87,181.44a2.6,2.6,0,1,0,3.1-2A2.62,2.62,0,0,0,463.87,181.44Z"/><path class="cls-4" d="M462,192.24a2.6,2.6,0,1,0,3.09-2A2.6,2.6,0,0,0,462,192.24Z"/><path class="cls-4" d="M431.93,127.22a54,54,0,0,0-5.86-1.67,52.23,52.23,0,0,0-6-.91c-25.85-2.42-44.81,15.63-49.48,37.09-5.3,24.34-4.66,34.91,15.92,46.68a66.35,66.35,0,0,0,20.39,7.24,61.23,61.23,0,0,0,20.75,1.72c23.61-2.15,28.58-11.5,33.88-35.85C466.18,160.07,456.45,135.77,431.93,127.22Z"/><path class="cls-4" d="M453.64,182.4c-4.36,20-25,32.53-46,27.95S373,185.82,377.36,165.8s25-32.53,46-28S458,162.39,453.64,182.4Z"/><path class="cls-7" d="M451.28,163.45a29.77,29.77,0,0,1-1,15.07c-4,11.88-15.62,19.38-27.82,20.2-11.13.74-24.2-2.29-32.55-10.1-12.66-11.87-10.05-29.75.05-41.73a33.36,33.36,0,0,0-9.76,17.22c-4.1,18.81,8.63,37.55,28.42,41.86s39.15-7.45,43.24-26.26A33.28,33.28,0,0,0,451.28,163.45Z"/><path class="cls-6" d="M429,233.64l-6.93-1.51-36.77-8-6.94-1.51c-6.87-1.5-9.15,3.56-10.89,7.6l-5.32,24.45L358,273.82l-.16.71.14,0c-.06,4.26.27,9.3,6.76,10.71l6.94,1.51,36.77,8,6.93,1.51c6.5,1.42,8.89-3,10.6-6.93l.14,0,.16-.7,4.17-19.16,5.32-24.44C435.86,240.69,435.89,235.14,429,233.64Z"/><path class="cls-8" d="M421.11,273.69l-1.52-.33-8-1.74-1.51-.33c-1.5-.32-2,.78-2.37,1.66l-1.16,5.32-.91,4.17,0,.16h0c0,.93.06,2,1.47,2.34l1.51.33,8,1.74,1.51.33c1.41.3,1.93-.66,2.3-1.51h0l0-.15.91-4.17,1.16-5.32C422.6,275.23,422.6,274,421.11,273.69Z"/><path class="cls-8" d="M404.88,270.16l-1.51-.33-8-1.74-1.51-.33c-1.5-.32-2,.78-2.38,1.66l-1.15,5.32-.91,4.17,0,.16h0c0,.93.06,2,1.48,2.33l1.51.33,8,1.75,1.51.32c1.42.31,1.94-.66,2.31-1.5h0l0-.15.91-4.17,1.16-5.33C406.37,271.7,406.38,270.49,404.88,270.16Z"/><path class="cls-4" d="M404.09,260.91a3.45,3.45,0,0,1-4.11,2.64h0a3.46,3.46,0,0,1-2.64-4.11h0a3.47,3.47,0,0,1,4.11-2.64h0a3.46,3.46,0,0,1,2.64,4.11Z"/><path class="cls-4" d="M413.42,262.94a3.46,3.46,0,0,1-4.11,2.64h0a3.46,3.46,0,0,1-2.64-4.11h0a3.47,3.47,0,0,1,4.11-2.64h0a3.47,3.47,0,0,1,2.64,4.11Z"/><path class="cls-4" d="M422.75,265a3.45,3.45,0,0,1-4.11,2.64h0A3.46,3.46,0,0,1,416,263.5h0a3.47,3.47,0,0,1,4.11-2.64h0a3.47,3.47,0,0,1,2.64,4.11Z"/><path class="cls-9" d="M372.41,248.81l-6.09,28L385.73,281l6.09-28Zm1,27-5.09-1.1,1.11-5.09,5.08,1.11Zm1.3-6-5.09-1.11,1.11-5.09,5.09,1.11Zm1.32-6.09-5.09-1.1,1.11-5.09,5.09,1.11Zm1.3-6-5.08-1.11,1.1-5.08,5.09,1.1ZM379.1,277,374,275.91l1.11-5.08,5.08,1.1Zm1.3-6-5.09-1.11,1.11-5.09L381.5,266Zm1.32-6.09-5.09-1.1,1.11-5.09,5.09,1.11Zm1.3-6-5.08-1.11,1.1-5.09,5.09,1.11Zm1.72,19.26-5.09-1.11,1.11-5.09,5.08,1.11Zm1.3-6-5.09-1.1,1.11-5.09,5.08,1.11Zm1.32-6.08-5.09-1.11,1.11-5.08,5.09,1.11Zm1.3-6-5.09-1.11,1.11-5.09,5.09,1.11Z"/><path class="cls-10" d="M426.67,238.93l-2.94-.64-15.58-3.4-2.94-.64-3.25-.7L399,232.9l-15.59-3.39-2.94-.64c-2.91-.63-3.7.72-4.3,1.79l-1.46,6.69-1.14,5.24,0,.19h.06c.1,1.2.4,2.62,3.15,3.22l2.94.64L395.29,250l2.94.64,3.25.71,2.94.64L420,255.42l2.94.64c2.76.6,3.61-.57,4.21-1.61h.06l0-.19,1.14-5.24,1.45-6.69C429.75,241.12,429.59,239.56,426.67,238.93Zm.4,9.63-.87,4,0,.14h-.05c-.45.78-1.1,1.67-3.19,1.22l-2.23-.49-11.83-2.57-2.24-.49-2.46-.54-2.24-.48-11.83-2.58-2.23-.49c-2.09-.45-2.32-1.53-2.4-2.43h0l0-.15.87-4,1.1-5.07c.46-.82,1.06-1.85,3.27-1.37l2.23.49,11.84,2.58,2.23.48,2.47.54,2.23.49,11.83,2.57,2.23.49c2.22.48,2.34,1.66,2.41,2.59Z"/><path class="cls-4" d="M380.06,395c-4.65,2-8.19,6.57-9.78,11.23-2,5.83-2.49,12.32-2.65,18.45-.1,3.92.1,7.81.15,11.72a58,58,0,0,0,.7,9.58c.93,5.21,2.92,10.5,6.76,14.3,7.43,7.33,21.94,8,27.27-2.28,2.92-5.65,3.45-12.23,3.62-18.48a90,90,0,0,0-.14-11.61c-.16-1.5-.34-3-.52-4.49,0-1.71,0-3.42-.17-5.13"/><path class="cls-4" d="M390.76,434.45c5.25.76,11,2.15,15.37,5.17-.17,6.22-.71,12.77-3.62,18.39-5.33,10.3-19.84,9.61-27.27,2.28-3.84-3.8-5.83-9.09-6.76-14.3a48.31,48.31,0,0,1-.65-7.11C374.94,435.25,382.41,433.25,390.76,434.45Z"/><path class="cls-4" d="M384.63,418.59c-3.69-2.56-6.95-6.12-7.86-10.65a18.22,18.22,0,0,1-.23-5.25c.11-.29.23-.58.36-.86,14.7-30.91,18.3-30.62,15.64-43.19s-7.83-31.59-4.09-35c12-11,36.92-13.54,36.92-13.54s9.27.39,10.81,3.84,9.56,42.7,1.38,61.35c-6.57,15-25.92,36.54-33.3,44.46C398.51,423.75,390.65,422.78,384.63,418.59Z"/><path class="cls-4" d="M418.44,340.72c-9.44.56-20.31,2.92-27.85,9.14-2.52-11.25-5.08-23.55-2.14-26.23,12-11,36.92-13.54,36.92-13.54s9.27.39,10.81,3.84c.89,2,4,16.21,4.8,31.39C434.57,341.14,425.77,340.28,418.44,340.72Z"/><path class="cls-4" d="M408.92,391a30.5,30.5,0,0,1-13.49-8.94,32.44,32.44,0,0,1-4.94-7.09c2-4.12,2.87-6.84,2.86-10.09,6.29,5.63,15,9,22.87,11,5.88,1.51,14.56,3.14,20.82.53a90,90,0,0,1-7.22,12.19C423.69,392.71,416.35,393.5,408.92,391Z"/><path class="cls-4" d="M380.24,428.74a1.64,1.64,0,0,0,.54,0c15-1.54,21.41,4,21.48,4.1a1.7,1.7,0,1,0,2.26-2.53c-.3-.27-7.64-6.65-24.09-4.95a1.7,1.7,0,0,0-.19,3.35Z"/><path class="cls-4" d="M379.52,436.31a1.56,1.56,0,0,0,.61,0c15.58-2.34,22.65,3.5,22.72,3.56a1.7,1.7,0,1,0,2.2-2.58c-.33-.28-8.33-6.9-25.42-4.33a1.7,1.7,0,0,0-1.43,1.93A1.72,1.72,0,0,0,379.52,436.31Z"/><path class="cls-4" d="M323.91,402.21c-.82,1.5-1.55,3.05-2.28,4.6-.79,1.29-1.58,2.57-2.34,3.87a91.42,91.42,0,0,0-5,10.5c-2.44,5.76-4.69,12-4.38,18.31.57,11.59,14.06,17,23.86,13.4,5.07-1.86,9.08-5.84,12.09-10.2a57.39,57.39,0,0,0,4.61-8.43c1.67-3.53,3.48-7,5-10.59,2.4-5.65,4.64-11.75,5.25-17.89.49-4.9-.82-10.56-4.24-14.28"/><path class="cls-4" d="M330.43,422.94c-5.08-1.49-10.87-2.59-16.12-1.68-2.43,5.73-4.66,11.92-4.35,18.23.57,11.59,14.06,17,23.86,13.4,5.07-1.86,9.08-5.84,12.09-10.2a47.35,47.35,0,0,0,3.54-6.19C344.49,430.24,338.53,425.32,330.43,422.94Z"/><path class="cls-4" d="M342.6,411.06c4.42-.79,8.86-2.68,11.56-6.43a17.7,17.7,0,0,0,2.39-4.68c0-.31,0-.62,0-.93-.54-34.22-3.94-35.45,3.7-45.78s20.25-25.49,18.27-30.15c-6.35-14.94-28-27.65-28-27.65s-8.6-3.49-11.43-1-26.42,34.87-26.73,55.23c-.25,16.35,8.41,44,11.83,54.27C327.83,410,335.38,412.37,342.6,411.06Z"/><path class="cls-4" d="M344.17,326.18c8.35,4.43,17.27,11.09,21.54,19.88,7-9.18,14.4-19.31,12.85-23-6.35-14.94-28-27.65-28-27.65s-8.6-3.49-11.43-1c-1.65,1.46-10.37,13.08-17.4,26.55C329.33,319.87,337.68,322.74,344.17,326.18Z"/><path class="cls-4" d="M332,375.87a30.45,30.45,0,0,0,16-2.54,32.53,32.53,0,0,0,7.45-4.39c-.1-4.58.23-7.42,1.58-10.37-8.06,2.51-17.42,2-25.38.53-6-1.07-14.55-3.19-19.16-8.17a91.18,91.18,0,0,0,1.5,14.09C317.81,371.3,324.16,375.06,332,375.87Z"/><path class="cls-4" d="M342.37,422.11a1.61,1.61,0,0,1-.5-.19c-13-7.62-21.16-5.21-21.24-5.19a1.7,1.7,0,1,1-1-3.24c.39-.12,9.71-2.87,24,5.5a1.7,1.7,0,0,1-1.22,3.12Z"/><path class="cls-4" d="M339.89,429.3a1.58,1.58,0,0,1-.57-.24c-13.2-8.6-22.06-6.22-22.14-6.2a1.7,1.7,0,1,1-.93-3.26c.42-.12,10.44-2.82,24.93,6.62a1.7,1.7,0,0,1-1.29,3.08Z"/><path class="cls-4" d="M460.43,220.17A164.1,164.1,0,0,0,482,208.37"/><path class="cls-4" d="M506.16,222.07c-13.11,14.06-31.42,24.22-41.36,29.11"/><path class="cls-5" d="M471.6,214.58l-1.69.91a60.34,60.34,0,0,0,11.25,26.59c1-.61,2-1.26,3-1.92A53.68,53.68,0,0,1,471.6,214.58Z"/><path class="cls-4" d="M450.13,259.32a37.52,37.52,0,0,0,7.79-.1c12.91-1.65,10.72-44.46-2.75-40.23-.26.08-.53.17-.79.27"/><path class="cls-4" d="M487.58,186.26c-2.81,10.51-5.67,22.08-5.67,22.08s-.94,15.4,13.72,18c0,0,10.74.1,13.92-9.65,1.92-5.88,3.57-18.31,3.44-28.4"/><path class="cls-4" d="M360.65,130.2c-2.14-1-4.75-.3-6.6,1-.7.5-5.62,4.55-5.47,5.07-1-3.53.1-13.78.37-15.11.35-1.75,1-3.48,1.21-5.24a7.19,7.19,0,0,0-.15-3.74q-2.85-3.39-5.06-.3l0,0a21.56,21.56,0,0,0-1.53,3.17,20.58,20.58,0,0,0-1.16,3.29c-.14.45-.27.87-.39,1.22,0,.16-.09.33-.14.49,0-3.89.92-7.72.61-11.63-.17-2.14-4.93-3.19-6.4-2-2.56,2-.71,14.82-1.3,17.93-.2-1.46-1-11.72-1-13.23,0-2.08-1.73-4.75-4.18-3.67-2.76,1.22-3.91,3.74-4,6.78,0,.24,2.16,12.24,2.16,12.49-.45-.84-2.57-13.61-3.51-13.77-3.93-.64-5.2,3.8-5.62,6.72A39.25,39.25,0,0,0,321,140.27c1.43,3.52,2.94,7.17,5.45,10.07,4.38,5.06,13.54,8.4,19.91,5.47,5-2.32,6.47-7.71,8.64-12.33a39,39,0,0,1,2.86-4.93c1.25-1.88,3.4-3.79,3.9-6.06A1.84,1.84,0,0,0,360.65,130.2Z"/><path class="cls-8" d="M327.28,135.58a8.73,8.73,0,0,1,2.62-3.76,12.54,12.54,0,0,1,8.51-3.07,10,10,0,0,1,4.42,1.11c-1.48.53-2.84.82-4.14,1.24s-2.56.79-3.8,1.21-2.46.94-3.71,1.48S328.68,134.92,327.28,135.58Z"/><path class="cls-8" d="M349.88,135.73c-1.31.78-2.49,1.48-3.58,2.19a16.82,16.82,0,0,0-2.86,2.3,9.09,9.09,0,0,0-1.93,2.9,14.2,14.2,0,0,0-.66,1.81c-.23.65-.3,1.34-.59,2.09a7,7,0,0,1-1-4.46,7.12,7.12,0,0,1,.63-2.37c.2-.37.42-.73.63-1.09a12.05,12.05,0,0,1,.79-.95,9,9,0,0,1,4.09-2.38A8.27,8.27,0,0,1,349.88,135.73Z"/><path class="cls-4" d="M485.6,158.57c2.36,0,4.45,1.7,5.59,3.65.43.74,3.22,6.47,2.87,6.88,2.41-2.77,5.64-12.57,5.95-13.89.41-1.74.57-3.57,1.07-5.28a7.28,7.28,0,0,1,1.69-3.34q4-1.89,4.73,1.84a.05.05,0,0,0,0,0,21.72,21.72,0,0,1,.07,3.52,19,19,0,0,1-.32,3.47c0,.47-.11.9-.15,1.27,0,.16-.05.34-.07.5,1.59-3.54,2.37-7.4,4.28-10.83,1-1.87,5.81-.85,6.66.82,1.49,2.91-5.52,13.77-6.27,16.85.79-1.25,5.77-10.25,6.43-11.61.91-1.87,3.55-3.6,5.33-1.6,2,2.26,2,5,.79,7.82-.09.21-7,10.23-7.15,10.46.76-.58,8-11.31,8.91-11.06,3.85,1,3.16,5.62,2.33,8.44a39.38,39.38,0,0,1-10.83,17.71c-2.77,2.61-5.66,5.3-9.15,6.9-6.09,2.78-15.8,2-20.38-3.3-3.62-4.21-2.68-9.71-2.74-14.81a38.6,38.6,0,0,0-.55-5.68c-.35-2.22-1.51-4.86-1-7.12A1.84,1.84,0,0,1,485.6,158.57Z"/><path class="cls-8" d="M513.89,176.56c-1-1.18-1.9-2.23-2.81-3.25s-1.8-2-2.75-2.88-1.9-1.82-3-2.68-2.13-1.75-3.25-2.85a9.94,9.94,0,0,1,4.48.83,12.52,12.52,0,0,1,6.46,6.33A8.71,8.71,0,0,1,513.89,176.56Z"/><path class="cls-8" d="M493.1,168.08a8.27,8.27,0,0,1,4.09,1.91,9,9,0,0,1,2.73,3.87,12.34,12.34,0,0,1,.33,1.19c0,.42.09.84.12,1.25a7.24,7.24,0,0,1-.42,2.42,7,7,0,0,1-2.8,3.63c.06-.8.28-1.46.34-2.15a13,13,0,0,0,.15-1.92,9.17,9.17,0,0,0-.55-3.44,17.31,17.31,0,0,0-1.64-3.28C494.75,170.46,494,169.34,493.1,168.08Z"/><rect class="cls-11" x="272.76" y="87.48" width="256.92" height="210.21"/><path class="cls-2" d="M243.35,392c-1.56-10.59-9.6-18.22-18.11-17.3h0l-.26,0-4.13.52c-.28,0-.55.05-.82.09l-.14,0h-.1c-8.55,1.42-14.19,11.12-12.61,21.82,1.52,10.36,9.25,17.89,17.54,17.36h0c.35,0,.69-.05,1-.1l.25-.05,3.85-.46.65-.07C239.18,412.62,244.94,402.83,243.35,392ZM230,410.56c-7.2,1.06-14.11-5.35-15.43-14.3s3.45-17.08,10.66-18.14,14.11,5.34,15.42,14.3S237.21,409.5,230,410.56Z"/><path class="cls-2" d="M219.93,385.59l1.35-.14,1.33-.17,2.58-.42,1.39-.25a6.06,6.06,0,0,1,4.24.57,4.6,4.6,0,0,1,1.84,3.4,5,5,0,0,1-.54,3.44,4.29,4.29,0,0,1-2.76,1.81v.08a5.11,5.11,0,0,1,3.66.91,4.93,4.93,0,0,1,1.69,3.31,4.61,4.61,0,0,1-.89,4,7.35,7.35,0,0,1-4.44,1.86c-.53.08-1.21.16-2,.26l-1.69.21-1.37.22-1.5.28-.16-1.05c.78-.12,1.26-.32,1.43-.61a3.51,3.51,0,0,0,0-1.92l-1.9-13c-.14-.9-.33-1.44-.57-1.61a2.53,2.53,0,0,0-1.53-.12Zm4.69.44,1.15,7.8,1.61-.24a3,3,0,0,0,2.31-1.27,4.88,4.88,0,0,0,.3-3.1,5,5,0,0,0-1.17-2.92,3.43,3.43,0,0,0-2.84-.47Zm1.31,8.88,1.21,8.25,1.44-.21a4,4,0,0,0,2.81-1.35,4.63,4.63,0,0,0,.38-3.25,4.86,4.86,0,0,0-1.35-3.11,3.88,3.88,0,0,0-3.11-.53Z"/><rect class="cls-2" x="222.89" y="382.74" width="1.41" height="2.58" transform="matrix(0.99, -0.15, 0.15, 0.99, -53.51, 36.63)"/><rect class="cls-2" x="226" y="403.62" width="1.41" height="3.07" transform="translate(-56.55 37.31) rotate(-8.37)"/><rect class="cls-2" x="225.66" y="382.3" width="1.41" height="2.58" transform="translate(-53.41 37.03) rotate(-8.37)"/><rect class="cls-2" x="228.76" y="403.18" width="1.41" height="3.07" transform="translate(-56.46 37.7) rotate(-8.37)"/><path class="cls-2" d="M599.46,391.2c.36.06.72.1,1.08.13l6.4.76.41.08c.57.08,1.14.14,1.72.18h0c13.78.88,26.61-11.61,29.14-28.82,2.62-17.77-6.74-33.89-20.94-36.25h0l-.16,0-.24,0c-.45-.07-.91-.12-1.36-.16l-6.87-.85-.42-.06h-.06c-14.13-1.53-27.48,11.14-30.07,28.74C575.48,372.82,585,389.08,599.46,391.2Zm-16.88-35.66c2.18-14.88,13.66-25.52,25.62-23.76s19.89,15.25,17.7,30.13-13.66,25.51-25.63,23.75S580.39,370.41,582.58,355.54Z"/><path class="cls-2" d="M605.44,339.33c.58.49,1.16,1,1.75,1.42s1.17.92,1.76,1.36q1.69,1.26,3.52,2.53L614.4,346q3.71,2.76,4.31,5.64c.4,1.93-.21,4-1.84,6.17a8.25,8.25,0,0,1-4.67,3.39,7.06,7.06,0,0,1-5.37-1.11l-.08.1a8.51,8.51,0,0,1,3.23,5.38,8.18,8.18,0,0,1-1.9,5.88q-2.57,3.45-5.7,3.6T595,372c-.71-.53-1.61-1.23-2.7-2.09s-1.84-1.45-2.24-1.75c-.58-.43-1.2-.88-1.87-1.35s-1.37-.94-2.09-1.42l1-1.43q1.59,1.17,2.4,1c.54-.14,1.3-.87,2.3-2.21l13-17.46c.9-1.22,1.31-2.07,1.22-2.56a4.26,4.26,0,0,0-1.64-1.94Zm5,6-7.82,10.52,2.17,1.61a5,5,0,0,0,4.21,1.21c1.27-.32,2.61-1.42,4-3.29s2.12-3.54,2-4.8-1-2.56-2.77-3.88Zm-8.9,12-8.26,11.11,1.94,1.44q2.84,2.11,4.88,1.72c1.37-.25,2.79-1.38,4.27-3.36s2.19-3.78,2.06-5.24-1.15-2.89-3-4.28Z"/><rect class="cls-2" x="609.44" y="340.64" width="4.28" height="2.34" transform="translate(-27.63 628.64) rotate(-53.37)"/><rect class="cls-2" x="587.87" y="369.1" width="5.1" height="2.34" transform="translate(-59 623.14) rotate(-53.37)"/><rect class="cls-2" x="613.2" y="343.37" width="4.28" height="2.34" transform="translate(-28.3 632.76) rotate(-53.37)"/><rect class="cls-2" x="591.63" y="371.83" width="5.1" height="2.34" transform="translate(-59.68 627.26) rotate(-53.37)"/></g></g></svg>