<svg xmlns="http://www.w3.org/2000/svg" xmlns:xlink="http://www.w3.org/1999/xlink" viewBox="0 0 1281.44 452.37"><defs><style>.cls-1,.cls-10,.cls-4,.cls-6{fill:none;}.cls-2{isolation:isolate;}.cls-3{fill:#e1e1e1;}.cls-4{stroke:#e1e1e1;stroke-width:4px;}.cls-10,.cls-12,.cls-14,.cls-15,.cls-4,.cls-6,.cls-7,.cls-8{stroke-miterlimit:10;}.cls-5{clip-path:url(#clip-path);}.cls-10,.cls-12,.cls-14,.cls-15,.cls-6,.cls-7,.cls-8{stroke:#fff;stroke-width:3px;}.cls-12,.cls-7,.cls-8,.cls-9{fill:#ebebec;}.cls-13,.cls-7,.cls-9{mix-blend-mode:screen;}.cls-10,.cls-15,.cls-8{mix-blend-mode:multiply;}.cls-11,.cls-13{fill:#fff;}.cls-14,.cls-15{fill:#d9d9db;}.cls-15{opacity:0.5;}</style><clipPath id="clip-path"><rect class="cls-1" x="868.94" y="143.38" width="353.5" height="289.23"/></clipPath></defs><g class="cls-2"><g id="Capa_1" data-name="Capa 1"><path class="cls-3" d="M132.86,125.82c-1.53-3.39-4.79-5.93-9.43-7.33a40.18,40.18,0,0,0-15.16-1l-.34,0-.29-.17a31.36,31.36,0,0,0-46.69,21l-.06.33-.25.23a40.59,40.59,0,0,0-9.31,12c-2,4.4-2.3,8.52-.78,11.92,2.45,5.44,9.11,8.5,18.76,8.63a56,56,0,0,0,5.84-.26l.33,0,.29.17a31.36,31.36,0,0,0,46.69-21l.06-.33.25-.23a55,55,0,0,0,4.08-4.19C133.16,138.28,135.3,131.26,132.86,125.82Zm-56.17-6.08a28.44,28.44,0,0,1,12-4.07l.85-.09.25.81a7.25,7.25,0,0,1,.3,2.07A7.12,7.12,0,0,1,76.27,121l-.3-.79Zm-7.35,49.15c-8.48-.11-14.49-2.71-16.48-7.13-1.23-2.75-1-6.06.77-9.82a31.67,31.67,0,0,1,5-7.37l1.73-2,.07,2.63a31.18,31.18,0,0,0,9.16,21.24l.68.66L72.17,169Zm48.57-12.64a28.79,28.79,0,0,1-34.69,15.58l-3.71-1.15,3.79-.83A92.78,92.78,0,0,0,116.37,155l3.16-2.28Zm2.31-7.91,0,.38-.29.25a81.83,81.83,0,0,1-20.35,12.77,82.09,82.09,0,0,1-23,6.73l-.38,0-.31-.21a28.77,28.77,0,0,1-3-45.69l1-.85.6,1.15a9.65,9.65,0,0,0,18.07-6.14l-.23-1.28,1.31.08a28.82,28.82,0,0,1,26.7,32.77Zm4.71-4.42-1.81,2-.1-2.55a31.18,31.18,0,0,0-9.16-21.24l-.68-.66-1.9-1.8,2.62,0a32,32,0,0,1,8.8,1.18c4,1.2,6.61,3.21,7.85,6C132.54,131.29,130.49,137.5,124.93,143.92Z"/><path class="cls-3" d="M82.94,137.82a7.41,7.41,0,1,0,7.4,7.41A7.41,7.41,0,0,0,82.94,137.82Zm0,12.29a4.88,4.88,0,1,1,4.87-4.88A4.89,4.89,0,0,1,82.94,150.11Z"/><path class="cls-3" d="M107.52,138.3a6,6,0,1,0,6,6A6,6,0,0,0,107.52,138.3Zm0,9.49a3.48,3.48,0,1,1,3.48-3.48A3.49,3.49,0,0,1,107.52,147.79Z"/><circle class="cls-4" cx="84.62" cy="388.12" r="19.22"/><path class="cls-3" d="M1268.08,167.4l-18.89-13.33a.84.84,0,0,0-1.08.09l-2.5,2.5-4.21-4.2,13-13a6.66,6.66,0,0,0,0-9.42,6.67,6.67,0,0,0-9.4,0l0,.05-13,13-4.21-4.21,2.5-2.5a.84.84,0,0,0,.09-1.08L1217,116.35a.82.82,0,0,0-.61-.35.89.89,0,0,0-.66.24L1204,128a.77.77,0,0,0-.24.66.79.79,0,0,0,.35.61L1223,142.6a.85.85,0,0,0,1.07-.09l2.5-2.51,4.21,4.21-5.35,5.35v.55h-.54L1219,156a6.68,6.68,0,0,0,0,9.4,6.66,6.66,0,0,0,9.42,0l11.77-11.76,4.21,4.21-2.51,2.5a.83.83,0,0,0-.09,1.07l13.33,18.89a.79.79,0,0,0,.61.35h.07a.83.83,0,0,0,.59-.25l11.76-11.75a.86.86,0,0,0,.24-.66A.82.82,0,0,0,1268.08,167.4Zm-62.19-38.92,10.35-10.35,4.54,6.43-8.46,8.45Zm17.51,12.35-9.69-6.84,8-8.05,6.83,9.69Zm22.82-9.68a5,5,0,0,1,7,7.09l-6.82,6.82-7.06-7.06Zm-19,33.11a4.89,4.89,0,0,1-3.48,1.42,5,5,0,0,1-3.54-8.52l5.55-5.55,7.06,7.06Zm6.78-6.77-7.07-7.07,11.25-11.24,7.06,7.06Zm9.59,3.54,5.2-5.19,9.69,6.84-8,8ZM1256,178.54l-4.53-6.43,8.45-8.46,6.43,4.54Z"/><polygon class="cls-3" points="603.72 424.11 605 427.55 608.44 428.83 605 430.1 603.72 433.55 602.45 430.1 599 428.83 602.45 427.55 603.72 424.11"/><polygon class="cls-3" points="428.72 171.11 430 174.55 433.44 175.83 430 177.1 428.72 180.55 427.45 177.1 424 175.83 427.45 174.55 428.72 171.11"/><path class="cls-3" d="M383.72,403.88l.34.91.16.43.43.16.91.34-.91.34-.43.15-.16.44-.34.91-.34-.91-.16-.44-.43-.15-.91-.34.91-.34.43-.16.16-.43.34-.91m0-2.88-1.27,3.44L379,405.72l3.45,1.27,1.27,3.45L385,407l3.44-1.27L385,404.44,383.72,401Z"/><path class="cls-3" d="M164.72,134.88l.34.91.16.43.43.16.91.34-.91.34-.43.15-.16.44-.34.91-.34-.91-.16-.44-.43-.15-.91-.34.91-.34.43-.16.16-.43.34-.91m0-2.88-1.27,3.44L160,136.72l3.45,1.27,1.27,3.45L166,138l3.44-1.27L166,135.44,164.72,132Z"/><path class="cls-3" d="M930.72,142.88l.34.91.16.43.43.16.91.34-.91.34-.43.15-.16.44-.34.91-.34-.91-.16-.44-.43-.15-.91-.34.91-.34.43-.16.16-.43.34-.91m0-2.88-1.27,3.44L926,144.72l3.45,1.27,1.27,3.45L932,146l3.44-1.27L932,143.44,930.72,140Z"/><polygon class="cls-3" points="12.94 248.33 16.44 257.78 25.89 261.27 16.44 264.77 12.94 274.22 9.45 264.77 0 261.27 9.45 257.78 12.94 248.33"/><g class="cls-5"><path class="cls-6" d="M985.87,293.79a226.42,226.42,0,0,1-20.24-27.1"/><path class="cls-6" d="M927.57,270c8.35,25.09,25.45,48.28,35.1,60.08"/><path class="cls-7" d="M975.09,280.4c.53.71,1,1.41,1.59,2.11a83.06,83.06,0,0,1-29.28,26.85q-1.32-2-2.64-4.13A73.87,73.87,0,0,0,975.09,280.4Z"/><path class="cls-6" d="M976.38,348.67a51.52,51.52,0,0,1-9.69-4.58c-15.23-9.45,12-61.76,26.44-48.78.29.26.56.52.84.8"/><path class="cls-6" d="M971.29,235.83c-2.5,14.75-5.54,30.87-5.54,30.87s-7.62,19.8-27.46,14.69c0,0-13.5-6-11.9-20,1-8.47,6-25,11.93-37.52"/><path class="cls-6" d="M1022.06,475.05c13.76,6,70.11-11.53,72.13-22.75,1.18-6.61,1.44-11.07.08-14"/><path class="cls-6" d="M966.61,410.69a31.08,31.08,0,0,0-7.59,15.2,4.26,4.26,0,0,0,.08,1.83"/><path class="cls-8" d="M968.4,434.09c.71-8,2.66-15.65,4.41-23.39l-5.15-1s-6.51,5.46-8.64,16.22c-.61,3.06,3.1,7.85,9,13.29C968.12,437.47,968.25,435.77,968.4,434.09Z"/><path class="cls-8" d="M1088.85,434.34c-.7-.17-2.56-.58-5.33-1.16l0,.46a108.15,108.15,0,0,1-2.09,13.75c-1.37,5.95-3.3,11.76-4.93,17.64,9.76-4.17,17-8.83,17.72-12.73C1096.2,441.08,1095.53,436,1088.85,434.34Z"/><path class="cls-6" d="M1005.6,293.58c-6.83.57-12.54,2.24-14.88,5.88C983,311.46,963,405.62,967,414.7c2.75,6.23,22.06,17.19,44.07,25.13,5,1.79,9.65,2.81,14.71,4.2,5.18.84,10.86,2.08,16.1,2.51,23.32,1.92,45.43,0,50.53-4.54,7.43-6.59,28.31-100.57,26.29-114.69-.62-4.36-5.29-8.33-11.45-11.73"/><path class="cls-6" d="M1000.14,280.33a18.12,18.12,0,0,1-3.41-.4h0A17.57,17.57,0,0,1,983.31,259l2.62-12a17.56,17.56,0,0,1,20.89-13.42"/><path class="cls-6" d="M999.66,243.87a3.58,3.58,0,1,1-2.74-4.26A3.59,3.59,0,0,1,999.66,243.87Z"/><path class="cls-6" d="M995.81,258.45a3.58,3.58,0,1,1-2.74-4.26A3.59,3.59,0,0,1,995.81,258.45Z"/><path class="cls-6" d="M1116.31,305.62a18.26,18.26,0,0,0,3.26,1.05h0a17.56,17.56,0,0,0,20.89-13.42l2.62-12a17.55,17.55,0,0,0-13.42-20.89"/><path class="cls-6" d="M1131.9,272.66a3.58,3.58,0,1,0,4.26-2.74A3.59,3.59,0,0,0,1131.9,272.66Z"/><path class="cls-6" d="M1129.34,287.52a3.58,3.58,0,1,0,4.27-2.74A3.58,3.58,0,0,0,1129.34,287.52Z"/><path class="cls-6" d="M1088,198.07a66,66,0,0,0-16.34-3.56c-35.57-3.33-61.66,21.51-68.08,51-7.29,33.5-6.41,48,21.9,64.23a91.58,91.58,0,0,0,28,10A84.42,84.42,0,0,0,1082,322.1c32.48-3,39.33-15.82,46.62-49.32C1135.08,243.26,1121.68,209.82,1088,198.07Z"/><path class="cls-6" d="M1117.82,274c-6,27.54-34.35,44.76-63.33,38.45s-47.61-33.75-41.62-61.3,34.35-44.76,63.33-38.45S1123.82,246.45,1117.82,274Z"/><path class="cls-9" d="M1114.58,247.91a41.1,41.1,0,0,1-1.45,20.73c-5.54,16.35-21.5,26.67-38.28,27.79-15.31,1-33.3-3.15-44.78-13.89-17.43-16.33-13.83-40.93.06-57.42a46.05,46.05,0,0,0-13.43,23.7c-5.63,25.88,11.88,51.66,39.1,57.59s53.87-10.25,59.51-36.13A45.88,45.88,0,0,0,1114.58,247.91Z"/><path class="cls-10" d="M1083.94,344.49l-9.55-2.08-50.59-11-9.54-2.08c-9.46-2.06-12.59,4.9-15,10.46L992,373.41l-5.74,26.36-.21,1,.19,0c-.08,5.86.37,12.79,9.3,14.73l9.55,2.08,50.59,11,9.54,2.08c8.94,1.95,12.23-4.17,14.59-9.53l.19,0,.21-1,5.74-26.36,7.32-33.63C1093.35,354.18,1093.39,346.55,1083.94,344.49Z"/><path class="cls-11" d="M1073.06,399.59l-2.08-.45-11-2.4-2.08-.45c-2.06-.45-2.75,1.07-3.27,2.28l-1.59,7.32-1.25,5.74,0,.21h0c0,1.28.08,2.79,2,3.21l2.08.46,11,2.39,2.08.45c2,.43,2.66-.9,3.18-2.07h0l0-.21,1.25-5.74,1.59-7.33C1075.11,401.71,1075.12,400,1073.06,399.59Z"/><path class="cls-11" d="M1050.74,394.73l-2.08-.45-11-2.39-2.07-.46c-2.06-.45-2.75,1.07-3.27,2.28l-1.59,7.32-1.25,5.74,0,.22h0c0,1.28.08,2.79,2,3.21l2.08.46,11,2.39,2.08.46c1.95.42,2.66-.91,3.18-2.08h0l0-.21,1.25-5.74,1.6-7.33C1052.79,396.85,1052.8,395.18,1050.74,394.73Z"/><path class="cls-6" d="M1049.65,382a4.76,4.76,0,0,1-5.66,3.63h0a4.76,4.76,0,0,1-3.63-5.65h0a4.76,4.76,0,0,1,5.66-3.64h0a4.76,4.76,0,0,1,3.63,5.66Z"/><path class="cls-6" d="M1062.48,384.8a4.75,4.75,0,0,1-5.65,3.63h0a4.75,4.75,0,0,1-3.63-5.65h0a4.75,4.75,0,0,1,5.65-3.63h0a4.75,4.75,0,0,1,3.63,5.65Z"/><path class="cls-6" d="M1075.32,387.59a4.76,4.76,0,0,1-5.66,3.64h0a4.76,4.76,0,0,1-3.63-5.66h0a4.76,4.76,0,0,1,5.66-3.63h0a4.76,4.76,0,0,1,3.63,5.65Z"/><path class="cls-12" d="M1006.06,365.35l-8.38,38.5,26.7,5.81,8.38-38.5Zm1.44,37.13-7-1.52,1.52-7,7,1.52Zm1.79-8.22-7-1.52,1.52-7,7,1.52Zm1.82-8.37-7-1.52,1.52-7,7,1.53Zm1.79-8.22-7-1.52,1.52-7,7,1.52Zm2.36,26.5-7-1.52,1.52-7,7,1.52Zm1.79-8.22-7-1.52,1.52-7,7,1.52Zm1.82-8.37-7-1.52,1.52-7,7,1.52Zm1.79-8.22-7-1.52,1.52-7,7,1.52Zm2.36,26.5-7-1.52,1.52-7,7,1.52Zm1.79-8.22-7-1.52,1.52-7,7,1.52Zm1.82-8.37-7-1.52,1.52-7,7,1.52Zm1.79-8.22-7-1.52,1.52-7,7,1.52Z"/><path class="cls-13" d="M1080.72,351.76l-4-.88-21.44-4.67-4-.88-4.47-1-4-.88-21.44-4.66-4-.89c-4-.87-5.1,1-5.93,2.47l-2,9.2-1.57,7.2-.06.27.08,0c.15,1.64.56,3.6,4.34,4.42l4.05.88,21.44,4.67,4,.88,4.47,1,4,.88,21.44,4.67,4,.88c3.79.83,5-.78,5.79-2.21h.08l.06-.26,1.57-7.21,2-9.2C1085,354.77,1084.72,352.63,1080.72,351.76Zm.54,13.25-1.19,5.47,0,.21-.06,0c-.62,1.09-1.51,2.31-4.39,1.69l-3.07-.67-16.28-3.55-3.08-.66-3.39-.74-3.07-.67-16.28-3.55-3.08-.67c-2.87-.62-3.18-2.11-3.29-3.35H1024l0-.21,1.19-5.47,1.52-7c.63-1.13,1.46-2.54,4.5-1.88l3.08.67,16.28,3.55,3.07.66,3.39.74,3.07.67,16.28,3.55,3.08.67c3,.66,3.21,2.28,3.31,3.57Z"/><path class="cls-6" d="M968.05,469.75c11.49,6.11,23.75,15.27,29.63,27.37,9.59-12.63,19.82-26.56,17.68-31.6-8.71-20.55-38.46-38.06-38.46-38.06s-11.83-4.81-15.72-1.37c-2.28,2-14.27,18-24,36.52C947.63,461.06,959.12,465,968.05,469.75Z"/><path class="cls-14" d="M1022.86,599c-5.07-3.52-9.56-8.43-10.8-14.66a25.16,25.16,0,0,1-.32-7.23c.15-.4.31-.79.49-1.18,20.23-42.52,25.19-42.12,21.52-59.42S1023,473,1028.12,468.3c16.47-15.07,50.81-18.63,50.81-18.63s12.75.54,14.87,5.29,13.15,58.74,1.89,84.41c-9,20.6-35.66,50.27-45.81,61.16C1042,606.05,1031.16,604.72,1022.86,599Z"/><path class="cls-12" d="M1069.4,491.82c-13,.77-28,4-38.33,12.57-3.47-15.47-7-32.4-3-36.09,16.47-15.07,50.81-18.63,50.81-18.63s12.75.54,14.87,5.29c1.23,2.77,5.5,22.29,6.61,43.18C1091.58,492.4,1079.48,491.22,1069.4,491.82Z"/><path class="cls-15" d="M1033.75,516.47c-3.66-17.3-10.77-43.47-5.63-48.17,16.47-15.07,50.81-18.63,50.81-18.63a41.91,41.91,0,0,1,9.44,1.6,19.58,19.58,0,0,0-5,0A53.09,53.09,0,0,0,1065.6,457c-4.6,2.37-10.33,5.43-12.86,10.22-4.31,8.14-.42,19.3,1.37,27.7,2.43,11.35,4.52,24.11,2.45,35.68-2,11.31-8.63,21.35-15.32,30.47-3.31,4.5-6.75,8.9-10.11,13.35-2.68,3.54-6,7-8,11-3.31,6.5-1.32,11.54,2.8,15.37a29.47,29.47,0,0,1-3-1.84c-5.07-3.52-9.56-8.43-10.8-14.66a25.16,25.16,0,0,1-.32-7.23c.15-.4.31-.79.49-1.18C1032.46,533.37,1037.42,533.77,1033.75,516.47Z"/><path class="cls-6" d="M1127.16,326a226.52,226.52,0,0,0,29.68-16.24"/><path class="cls-6" d="M1190.08,328.56c-18,19.35-43.23,33.34-56.9,40.06"/><path class="cls-7" d="M1142.53,318.26l-2.32,1.26a83,83,0,0,0,15.47,36.58c1.36-.85,2.74-1.74,4.12-2.65A73.91,73.91,0,0,1,1142.53,318.26Z"/><path class="cls-6" d="M1113,379.82a51.73,51.73,0,0,0,10.71-.15c17.77-2.26,14.76-61.16-3.77-55.35-.37.12-.73.24-1.1.38"/><path class="cls-6" d="M1164.52,279.3c-3.86,14.46-7.8,30.38-7.8,30.38s-1.3,21.18,18.87,24.78c0,0,14.78.15,19.15-13.27,2.64-8.09,4.92-25.19,4.74-39.08"/><path class="cls-6" d="M989.88,202.16c-3-1.37-6.54-.41-9.08,1.37-1,.68-7.73,6.26-7.52,7-1.44-4.85.13-18.95.49-20.79.48-2.4,1.34-4.79,1.68-7.21a10,10,0,0,0-.21-5.15q-3.93-4.66-7-.4s0,0,0,0a30.27,30.27,0,0,0-2.11,4.36,28.09,28.09,0,0,0-1.58,4.53c-.2.62-.38,1.19-.54,1.67-.07.22-.13.45-.2.67,0-5.34,1.27-10.61.84-16-.24-2.94-6.78-4.39-8.8-2.78-3.53,2.78-1,20.38-1.79,24.66-.28-2-1.36-16.13-1.41-18.2-.07-2.87-2.38-6.54-5.75-5.05-3.8,1.68-5.38,5.14-5.47,9.33,0,.32,3,16.84,3,17.18-.62-1.16-3.53-18.73-4.82-18.94-5.42-.89-7.17,5.22-7.75,9.23A54.2,54.2,0,0,0,935.25,216c2,4.85,4,9.87,7.51,13.87,6,7,18.62,11.55,27.38,7.52,6.94-3.2,8.91-10.61,11.9-17a52.71,52.71,0,0,1,3.94-6.78c1.71-2.58,4.67-5.22,5.35-8.34A2.53,2.53,0,0,0,989.88,202.16Z"/><path class="cls-11" d="M944,209.56a13.41,13.41,0,0,1,3.85-4.8,18.61,18.61,0,0,1,11.51-4.15,16.69,16.69,0,0,1,3.08.24,16.93,16.93,0,0,1,3,.84c-1,.3-2,.4-2.94.63s-1.9.37-2.82.64a45.36,45.36,0,0,0-5.36,1.58,44.44,44.44,0,0,0-5.15,2.19C947.39,207.57,945.72,208.49,944,209.56Z"/><path class="cls-11" d="M975.06,209.77c-1.84.85-3.54,1.67-5.12,2.6a19.17,19.17,0,0,0-4.17,3.19,12.31,12.31,0,0,0-2.69,4.26,26.84,26.84,0,0,0-1.25,5.49,10.5,10.5,0,0,1-1.05-6,10.37,10.37,0,0,1,2.83-5.79,13.32,13.32,0,0,1,11.45-3.71Z"/><path class="cls-6" d="M1161.8,241.2c3.25,0,6.12,2.34,7.69,5,.59,1,4.43,8.9,3.94,9.47,3.32-3.82,7.76-17.3,8.19-19.12.56-2.39.78-4.91,1.47-7.26a10,10,0,0,1,2.33-4.59q5.52-2.61,6.5,2.52l0,.06a30,30,0,0,1,.1,4.84,27.42,27.42,0,0,1-.44,4.78c-.07.65-.15,1.24-.21,1.75,0,.22-.06.46-.09.69,2.18-4.88,3.26-10.18,5.89-14.9,1.43-2.58,8-1.17,9.16,1.12,2.05,4-7.59,18.95-8.62,23.18,1.08-1.72,7.93-14.11,8.84-16,1.26-2.58,4.88-5,7.33-2.2,2.75,3.1,2.75,6.91,1.09,10.75-.13.3-9.69,14.09-9.84,14.4,1-.8,11-15.57,12.26-15.22,5.3,1.44,4.35,7.73,3.21,11.62a54.14,54.14,0,0,1-14.91,24.36c-3.81,3.59-7.77,7.29-12.59,9.49-8.37,3.83-21.74,2.77-28-4.54-5-5.79-3.69-13.35-3.77-20.38a53.65,53.65,0,0,0-.76-7.8c-.49-3.06-2.08-6.69-1.41-9.81A2.53,2.53,0,0,1,1161.8,241.2Z"/><path class="cls-11" d="M1200.71,266c-1.15-1.7-2.29-3.24-3.49-4.71a44.84,44.84,0,0,0-3.76-4.13,46.77,46.77,0,0,0-4.23-3.67c-.72-.62-1.52-1.13-2.29-1.74s-1.62-1.11-2.42-1.8a17.56,17.56,0,0,1,3,.46,16.73,16.73,0,0,1,2.89,1.07,18.6,18.6,0,0,1,8.75,8.56A13.32,13.32,0,0,1,1200.71,266Z"/><path class="cls-11" d="M1172.12,254.28a13.28,13.28,0,0,1,8.86,8.13,10.36,10.36,0,0,1,.17,6.44,10.5,10.5,0,0,1-3.46,5.06,27.07,27.07,0,0,0,1.14-5.51,12.34,12.34,0,0,0-.68-5,19.07,19.07,0,0,0-2.47-4.63C1174.63,257.27,1173.43,255.82,1172.12,254.28Z"/></g><path class="cls-3" d="M886.11,407.93c-1.56-10.6-9.6-18.23-18.1-17.31h0l-.25,0-4.14.51-.82.09-.14,0h-.1c-8.55,1.42-14.18,11.12-12.61,21.82,1.53,10.37,9.25,17.89,17.55,17.36h0c.34,0,.69-.06,1-.11l.24-.05,3.86-.46.64-.07C882,428.52,887.7,418.73,886.11,407.93Zm-13.34,18.53c-7.2,1.06-14.11-5.34-15.43-14.3S860.8,395.08,868,394s14.11,5.34,15.43,14.3S880,425.4,872.77,426.46Z"/><path class="cls-3" d="M862.69,401.49c.46,0,.91-.08,1.35-.14l1.33-.17,2.58-.42,1.4-.25a6,6,0,0,1,4.23.57,4.62,4.62,0,0,1,1.84,3.41,4.89,4.89,0,0,1-.54,3.43,4.25,4.25,0,0,1-2.76,1.81v.08a5.14,5.14,0,0,1,3.67.91,5,5,0,0,1,1.69,3.32,4.64,4.64,0,0,1-.89,4,7.36,7.36,0,0,1-4.45,1.86c-.53.08-1.21.17-2,.26l-1.7.21-1.37.22-1.49.28-.17-1.05c.79-.11,1.26-.32,1.43-.6a3.61,3.61,0,0,0,0-1.93l-1.91-13c-.13-.9-.32-1.44-.57-1.61a2.5,2.5,0,0,0-1.52-.12Zm4.69.44,1.15,7.8,1.61-.23a3,3,0,0,0,2.31-1.28,6.62,6.62,0,0,0-.87-6,3.44,3.44,0,0,0-2.83-.47Zm1.31,8.88,1.21,8.25,1.44-.21a3.86,3.86,0,0,0,2.81-1.35,4.62,4.62,0,0,0,.39-3.25,4.88,4.88,0,0,0-1.36-3.1,3.81,3.81,0,0,0-3.1-.54Z"/><rect class="cls-3" x="865.66" y="398.64" width="1.41" height="2.58" transform="matrix(0.99, -0.15, 0.15, 0.99, -48.98, 130.34)"/><rect class="cls-3" x="868.77" y="419.52" width="1.41" height="3.07" transform="translate(-52.02 131.02) rotate(-8.37)"/><rect class="cls-3" x="868.42" y="398.21" width="1.41" height="2.58" transform="translate(-48.89 130.74) rotate(-8.37)"/><rect class="cls-3" x="871.53" y="419.08" width="1.41" height="3.07" transform="translate(-51.93 131.41) rotate(-8.37)"/><path class="cls-3" d="M1242.22,407.11l1.08.12,6.4.77.41.07c.57.08,1.15.14,1.72.18h0c13.77.89,26.6-11.61,29.14-28.82,2.61-17.77-6.75-33.89-21-36.25h0l-.17,0-.23,0c-.46-.07-.91-.12-1.37-.16l-6.86-.85-.43-.05H1251c-14.12-1.52-27.48,11.15-30.07,28.74C1218.24,388.72,1227.8,405,1242.22,407.11Zm-16.88-35.67c2.19-14.88,13.66-25.51,25.62-23.75s19.89,15.24,17.7,30.12S1255,403.32,1243,401.56,1223.15,386.31,1225.34,371.44Z"/><path class="cls-3" d="M1248.2,355.23c.58.49,1.17,1,1.75,1.43s1.17.91,1.76,1.35c1.13.84,2.31,1.68,3.53,2.54l1.93,1.35q3.7,2.75,4.3,5.64t-1.83,6.16a8.18,8.18,0,0,1-4.68,3.39,7,7,0,0,1-5.36-1.11l-.08.1a8.57,8.57,0,0,1,3.23,5.38,8.2,8.2,0,0,1-1.91,5.88q-2.56,3.45-5.7,3.6t-7.41-3c-.71-.53-1.61-1.23-2.7-2.09s-1.84-1.45-2.23-1.74c-.58-.44-1.21-.89-1.88-1.36s-1.36-.94-2.08-1.42l1-1.43c1,.78,1.85,1.11,2.39,1s1.31-.88,2.3-2.22l13-17.46c.91-1.21,1.31-2.07,1.22-2.56s-.64-1.14-1.64-1.93Zm5,6-7.81,10.51,2.16,1.61a5,5,0,0,0,4.21,1.21q1.92-.48,4-3.29c1.44-1.93,2.13-3.54,2-4.8s-1-2.56-2.77-3.88Zm-8.89,12L1236,384.34l1.94,1.44c1.89,1.4,3.52,2,4.89,1.72s2.78-1.39,4.26-3.37,2.2-3.78,2.06-5.24-1.14-2.89-3-4.28Z"/><rect class="cls-3" x="1252.2" y="356.54" width="4.28" height="2.34" transform="translate(218.86 1150.86) rotate(-53.37)"/><rect class="cls-3" x="1230.63" y="385" width="5.1" height="2.34" transform="translate(187.49 1145.36) rotate(-53.37)"/><rect class="cls-3" x="1255.96" y="359.27" width="4.28" height="2.34" transform="translate(218.18 1154.98) rotate(-53.37)"/><rect class="cls-3" x="1234.39" y="387.73" width="5.1" height="2.34" transform="translate(186.8 1149.48) rotate(-53.37)"/></g></g></svg>