<svg id="Capa_1" data-name="Capa 1" xmlns="http://www.w3.org/2000/svg" viewBox="0 0 1367.88 531.56"><defs><style>.cls-1{fill:#fe2a6f;}.cls-2,.cls-3,.cls-4,.cls-5{fill:#3c3c3b;}.cls-2,.cls-8{opacity:0.1;}.cls-3,.cls-6,.cls-7{opacity:0.2;}.cls-4,.cls-5{opacity:0.35;}.cls-5,.cls-6,.cls-7,.cls-8{stroke:#3c3c3b;}.cls-5{stroke-miterlimit:10;}.cls-6,.cls-7,.cls-8{fill:none;stroke-linecap:round;stroke-linejoin:round;}.cls-6{stroke-width:8px;}.cls-7{stroke-width:16px;}.cls-8{stroke-width:11px;}</style></defs><path class="cls-1" d="M1280.57,531.22h.19a.29.29,0,0,1,0-.09h85.6v-.07H1280.6Z"/><path class="cls-1" d="M1066.85,531.06H581.59c2.56-14.57,8.54-30.64,17.16-47l.31-.59c.63-1.19,1.28-2.39,1.94-3.58q.86-1.55,1.74-3.09c.36-.63.72-1.26,1.09-1.89.8-1.36,1.61-2.73,2.44-4.09.35-.58.7-1.15,1.06-1.72,23-37.13,58.23-73.68,96.42-95.25,130.88-73.94,240.75-27.33,319.59-19.26a182.12,182.12,0,0,0,26.69,1c2.81-.13,5.58-.35,8.29-.67q2.72-.32,5.37-.77a87,87,0,0,0,12.2-3l1.25-.43a71.24,71.24,0,0,0,9-3.78,70.23,70.23,0,0,0,11.23-7.06q2.16-1.65,4.24-3.52c1.39-1.24,2.75-2.55,4.1-3.93s2.65-2.84,3.94-4.38c.93-1.09,1.84-2.25,2.73-3.42s2-2.61,2.92-4c1.21-1.77,2.41-3.62,3.57-5.55.8-1.31,1.57-2.67,2.34-4.05.93-1.68,1.85-3.41,2.75-5.21,5.46-10.94,10.28-24.07,14.45-39.75a172.55,172.55,0,0,1,7.45-21.8q1.8-4.31,3.82-8.56,3-6.37,6.58-12.63c2.35-4.17,4.87-8.28,7.52-12.34q2.65-4.06,5.51-8c46.25-64.73,128.91-113.33,197.12-113.8v-18c-47.39.29-101.89,21.16-149.7,57.39a310.87,310.87,0,0,0-49.83,47.09,310.87,310.87,0,0,1,49.83-47.09C1264.49,92,1319,71.17,1366.38,70.88V1.66H1341c-51.81,74.68-217.31,59.68-327.62,53.4C962,52.14,901.26,48.56,844,52.82c-21.34,16.39-43.37,32.92-73.34,41.61,30-8.69,52-25.22,73.34-41.61-86,6.41-164.2,30.52-191.31,101.24-23,60-41.31,260-356.55,193.68C107.18,308,103.26,518,102.74,531.06H.38v.07H1066.66a.29.29,0,0,1,0,.09h.2Zm85.2-336.54a242.63,242.63,0,0,0-19.43,32.62A242.63,242.63,0,0,1,1152.05,194.52Zm-54.14,118a69.66,69.66,0,0,1-7.8,9.19A69.66,69.66,0,0,0,1097.91,312.53Zm-397.3,42.23-2.42,1.31ZM561.89,529.61c9.16-52.25,54.18-115.9,107.51-155.21C616.07,413.71,571.05,477.36,561.89,529.61Z"/><path class="cls-2" d="M1341,1.66c.38-.55.78-1.1,1.15-1.66H827.38l-2.3,1.66Z"/><path class="cls-2" d="M161.81,1.66c-.13-.57-.26-1.12-.39-1.66H0V531.06H.38V1.66Z"/><path class="cls-1" d="M296.14,347.74c315.24,66.32,333.55-133.68,356.55-193.68C679.8,83.34,758,59.23,844,52.82l1.83-1.41c6.51-5,13.23-10.16,20.19-15.15l5.39-3.85L866,36.26c-7,5-13.68,10.15-20.19,15.15L844,52.82c57.26-4.26,118-.68,169.38,2.24,110.31,6.28,275.81,21.28,327.62-53.4H825.08C777.42,36.25,747,72.81,657.4,56.8c-198.76-35.52-131.49,84.26-306.8,83.41C207.91,139.52,170.72,39,161.81,1.66H.38v529.4H102.74C103.26,518,107.18,308,296.14,347.74ZM592.59,70.22c16,0,34.84,1.79,56,5.34-21.12-3.55-39.92-5.34-56-5.34-36.92,0-56.56,9-74,22.08C536,79.23,555.67,70.22,592.59,70.22ZM190.07,96.9a186.08,186.08,0,0,0,63.05,44.51c28.33,12.3,61.1,18.63,97.38,18.8h1.95c49.09,0,81-9.09,104.64-21.52-23.68,12.43-55.55,21.52-104.64,21.52H350.5c-36.28-.17-69.05-6.5-97.38-18.8A186.08,186.08,0,0,1,190.07,96.9c-31.28-33.85-43.59-72.46-48.15-92.46C146.48,24.44,158.79,63.05,190.07,96.9Z"/><path class="cls-2" d="M296.14,347.74c315.24,66.32,333.55-133.68,356.55-193.68C679.8,83.34,758,59.23,844,52.82l1.83-1.41c6.51-5,13.23-10.16,20.19-15.15l5.39-3.85L866,36.26c-7,5-13.68,10.15-20.19,15.15L844,52.82c57.26-4.26,118-.68,169.38,2.24,110.31,6.28,275.81,21.28,327.62-53.4H825.08C777.42,36.25,747,72.81,657.4,56.8c-198.76-35.52-131.49,84.26-306.8,83.41C207.91,139.52,170.72,39,161.81,1.66H.38v529.4H102.74C103.26,518,107.18,308,296.14,347.74ZM592.59,70.22c16,0,34.84,1.79,56,5.34-21.12-3.55-39.92-5.34-56-5.34-36.92,0-56.56,9-74,22.08C536,79.23,555.67,70.22,592.59,70.22ZM190.07,96.9a186.08,186.08,0,0,0,63.05,44.51c28.33,12.3,61.1,18.63,97.38,18.8h1.95c49.09,0,81-9.09,104.64-21.52-23.68,12.43-55.55,21.52-104.64,21.52H350.5c-36.28-.17-69.05-6.5-97.38-18.8A186.08,186.08,0,0,1,190.07,96.9c-31.28-33.85-43.59-72.46-48.15-92.46C146.48,24.44,158.79,63.05,190.07,96.9Z"/><path class="cls-2" d="M825.08,1.66,827.38,0h-666c.13.54.26,1.09.39,1.66Z"/><path class="cls-3" d="M825.08,1.66,827.38,0h-666c.13.54.26,1.09.39,1.66Z"/><path class="cls-1" d="M350.6,140.21c175.31.85,108-118.93,306.8-83.41,89.55,16,120-20.55,167.68-55.14H161.81C170.72,39,207.91,139.52,350.6,140.21Z"/><path class="cls-2" d="M350.6,140.21c175.31.85,108-118.93,306.8-83.41,89.55,16,120-20.55,167.68-55.14H161.81C170.72,39,207.91,139.52,350.6,140.21Z"/><path class="cls-3" d="M350.6,140.21c175.31.85,108-118.93,306.8-83.41,89.55,16,120-20.55,167.68-55.14H161.81C170.72,39,207.91,139.52,350.6,140.21Z"/><path class="cls-4" d="M1366.38,88.88l1,0h0l-1,0Z"/><path class="cls-4" d="M1115.27,320.62c-1,1.39-1.93,2.71-2.92,4C1113.34,323.33,1114.31,322,1115.27,320.62Z"/><path class="cls-4" d="M1280.57,531.22l0-.16H1066.85l0,.16Z"/><path class="cls-4" d="M601,479.91c-.66,1.19-1.31,2.39-1.94,3.58C599.69,482.3,600.34,481.1,601,479.91Z"/><path class="cls-4" d="M603.83,474.93c-.37.63-.73,1.26-1.09,1.89C603.1,476.19,603.46,475.56,603.83,474.93Z"/><path class="cls-4" d="M607.33,469.12c-.36.57-.71,1.14-1.06,1.72C606.62,470.26,607,469.69,607.33,469.12Z"/><path class="cls-4" d="M581.59,531.06c2.56-14.57,8.54-30.64,17.16-47-8.62,16.34-14.6,32.41-17.16,47Z"/><path class="cls-4" d="M1169.26,202.68c46.25-64.73,128.91-113.33,197.12-113.8h0C1298.17,89.35,1215.51,138,1169.26,202.68Z"/><path class="cls-4" d="M1149.65,235.7q-2,4.26-3.82,8.56Q1147.63,240,1149.65,235.7Z"/><path class="cls-4" d="M1163.75,210.73c-2.65,4.06-5.17,8.17-7.52,12.34C1158.58,218.9,1161.1,214.79,1163.75,210.73Z"/><path class="cls-4" d="M1077.14,350.71l-1.25.43Z"/><path class="cls-4" d="M1123.93,305.81c-.9,1.8-1.82,3.53-2.75,5.21C1122.11,309.34,1123,307.61,1123.93,305.81Z"/><path class="cls-1" d="M1097.34,339.87a70.23,70.23,0,0,1-11.23,7.06A70.23,70.23,0,0,0,1097.34,339.87Z"/><path class="cls-1" d="M1086.11,346.93a71.24,71.24,0,0,1-9,3.78A71.24,71.24,0,0,0,1086.11,346.93Z"/><path class="cls-1" d="M1121.18,311c-.77,1.38-1.54,2.74-2.34,4.05C1119.64,313.76,1120.41,312.4,1121.18,311Z"/><path class="cls-1" d="M1109.62,328c-1.29,1.54-2.6,3-3.94,4.38C1107,331,1108.33,329.58,1109.62,328Z"/><path class="cls-1" d="M1112.35,324.62c-.89,1.17-1.8,2.33-2.73,3.42C1110.55,327,1111.46,325.79,1112.35,324.62Z"/><path class="cls-1" d="M1105.68,332.42c-1.35,1.38-2.71,2.69-4.1,3.93C1103,335.11,1104.33,333.8,1105.68,332.42Z"/><path class="cls-1" d="M602.74,476.82q-.88,1.55-1.74,3.09Q601.86,478.37,602.74,476.82Z"/><path class="cls-1" d="M599.06,483.49l-.31.59Z"/><path class="cls-1" d="M606.27,470.84c-.83,1.36-1.64,2.73-2.44,4.09C604.63,473.57,605.44,472.2,606.27,470.84Z"/><path class="cls-1" d="M1023.34,354.61a182.12,182.12,0,0,0,26.69,1A182.12,182.12,0,0,1,1023.34,354.61Z"/><path class="cls-1" d="M703.75,373.87c-38.19,21.57-73.43,58.12-96.42,95.25,23-37.13,58.23-73.68,96.42-95.25,130.88-73.94,240.75-27.33,319.59-19.26C944.5,346.54,834.63,299.93,703.75,373.87Z"/><path class="cls-1" d="M1063.69,354.15q-2.65.45-5.37.77Q1061,354.6,1063.69,354.15Z"/><path class="cls-1" d="M1075.89,351.14a87,87,0,0,1-12.2,3A87,87,0,0,0,1075.89,351.14Z"/><path class="cls-1" d="M1058.32,354.92c-2.71.32-5.48.54-8.29.67C1052.84,355.46,1055.61,355.24,1058.32,354.92Z"/><path class="cls-5" d="M1366.38,531.06h1V88.86l-1,0Z"/><path class="cls-1" d="M1169.26,202.68q-2.85,4-5.51,8c-2.65,4.06-5.17,8.17-7.52,12.34s-4.55,8.38-6.58,12.63q-2,4.26-3.82,8.56a172.55,172.55,0,0,0-7.45,21.8c-4.17,15.68-9,28.81-14.45,39.75-.9,1.8-1.82,3.53-2.75,5.21-.77,1.38-1.54,2.74-2.34,4.05-1.16,1.93-2.36,3.78-3.57,5.55-1,1.39-1.93,2.71-2.92,4s-1.8,2.33-2.73,3.42c-1.29,1.54-2.6,3-3.94,4.38s-2.71,2.69-4.1,3.93-2.8,2.42-4.24,3.52a70.23,70.23,0,0,1-11.23,7.06,71.24,71.24,0,0,1-9,3.78l-1.25.43a87,87,0,0,1-12.2,3q-2.65.45-5.37.77c-2.71.32-5.48.54-8.29.67a182.12,182.12,0,0,1-26.69-1c-78.84-8.07-188.71-54.68-319.59,19.26-38.19,21.57-73.43,58.12-96.42,95.25-.36.57-.71,1.14-1.06,1.72-.83,1.36-1.64,2.73-2.44,4.09-.37.63-.73,1.26-1.09,1.89q-.88,1.55-1.74,3.09c-.66,1.19-1.31,2.39-1.94,3.58l-.31.59c-8.62,16.34-14.6,32.41-17.16,47h784.79V88.88C1298.17,89.35,1215.51,138,1169.26,202.68Z"/><path class="cls-4" d="M1169.26,202.68q-2.85,4-5.51,8c-2.65,4.06-5.17,8.17-7.52,12.34s-4.55,8.38-6.58,12.63q-2,4.26-3.82,8.56a172.55,172.55,0,0,0-7.45,21.8c-4.17,15.68-9,28.81-14.45,39.75-.9,1.8-1.82,3.53-2.75,5.21-.77,1.38-1.54,2.74-2.34,4.05-1.16,1.93-2.36,3.78-3.57,5.55-1,1.39-1.93,2.71-2.92,4s-1.8,2.33-2.73,3.42c-1.29,1.54-2.6,3-3.94,4.38s-2.71,2.69-4.1,3.93-2.8,2.42-4.24,3.52a70.23,70.23,0,0,1-11.23,7.06,71.24,71.24,0,0,1-9,3.78l-1.25.43a87,87,0,0,1-12.2,3q-2.65.45-5.37.77c-2.71.32-5.48.54-8.29.67a182.12,182.12,0,0,1-26.69-1c-78.84-8.07-188.71-54.68-319.59,19.26-38.19,21.57-73.43,58.12-96.42,95.25-.36.57-.71,1.14-1.06,1.72-.83,1.36-1.64,2.73-2.44,4.09-.37.63-.73,1.26-1.09,1.89q-.88,1.55-1.74,3.09c-.66,1.19-1.31,2.39-1.94,3.58l-.31.59c-8.62,16.34-14.6,32.41-17.16,47h784.79V88.88C1298.17,89.35,1215.51,138,1169.26,202.68Z"/><path class="cls-6" d="M458.84,138.25c-23.68,12.43-55.56,21.52-104.65,21.52h-1.94c-36.29-.17-69.05-6.5-97.39-18.8a186.11,186.11,0,0,1-63-44.5C160.53,62.61,148.22,24,143.67,4"/><path class="cls-6" d="M650.29,75.12c-21.11-3.55-39.92-5.35-55.95-5.35-36.93,0-56.57,9-74,22.08"/><path class="cls-7" d="M873.16,32l-5.39,3.86c-7,5-13.69,10.14-20.19,15.14C825.67,67.8,803.24,85,772.4,94"/><path class="cls-8" d="M1166.31,176.32a310.43,310.43,0,0,1,49.83-47.09c48.15-36.48,103.08-57.41,150.7-57.41"/><path class="cls-8" d="M1132.08,228.1a242,242,0,0,1,19.43-32.62"/><path class="cls-8" d="M1089.57,322.68a69.66,69.66,0,0,0,7.8-9.19"/><path class="cls-8" d="M561.35,530.57c9.16-52.25,54.18-115.9,107.51-155.21"/></svg>