<svg xmlns="http://www.w3.org/2000/svg" viewBox="0 0 495.83 458.26"><defs><style>.a{fill:#5858bf;}.b{fill:#fe2a6f;}.c{fill:#f4609c;}.d{fill:#2b2a65;}.e{fill:#f2f2f2;opacity:0.26;}.f{fill:#35357a;}.g{fill:#edd598;}.h{fill:#f74686;}.i{fill:#88cdae;}.j{fill:#ccaa3e;}.k{fill:#ffd94a;}</style></defs><path class="a" d="M29,316.85V443.59H289.82V316.85ZM284.78,438.12H34V322.32H284.78Z"/><circle class="a" cx="73.15" cy="380.22" r="12.09"/><circle class="a" cx="245.7" cy="380.22" r="12.09"/><path class="a" d="M169.71,384.42q-3.56-3.18-12-3.17H152.1V408.1h5.83q8.52,0,11.93-3t3.4-10.18Q173.26,387.59,169.71,384.42Z"/><path class="a" d="M168.51,374.76c2-2,3-5.24,3-9.75q0-7-2.94-9.85t-10.94-2.83H152.1v25.4h6.51Q165.51,377.73,168.51,374.76Z"/><path class="a" d="M159.41,329.85a50.37,50.37,0,1,0,50.38,50.37A50.37,50.37,0,0,0,159.41,329.85Zm19.83,78q-5.22,3.43-16,3.8v7.45H157.6v-7.42c-1.56,0-3.32-.06-5.31-.11H152v7.63H146.4v-7.75h-.94c-1.74,0-3.6,0-5.57.06s-4,.11-6.08.19l0-3.43c3.17,0,5.17-.42,6-1.26s1.26-2.88,1.26-6.1V358.72c0-3-.44-4.74-1.33-5.4s-2.87-1-5.95-1.12v-3.47c1.82.09,3.64.15,5.44.2s3.58.06,5.35.06h1.84v-7.65H152v7.58l3-.06,2.56-.06v-7.56h5.65v7.55q9.21.39,13.91,3.74,5.31,3.78,5.31,11.71,0,6.76-4.15,10.69t-12,4.47v.26q9.21.55,14,4.63t4.77,11.35Q185.08,404,179.24,407.85Z"/><rect class="b" y="270.82" width="260.81" height="126.74"/><path class="c" d="M226.27,278.27H34.58A29.26,29.26,0,0,1,7.33,305v58.47a29.25,29.25,0,0,1,27.25,26.69H226.27a29.25,29.25,0,0,1,27.22-26.69V305A29.26,29.26,0,0,1,226.27,278.27Z"/><circle class="b" cx="44.15" cy="334.19" r="12.09"/><circle class="b" cx="216.69" cy="334.19" r="12.09"/><path class="b" d="M128.71,335.22h-5.62v26.86h5.83q8.52,0,11.93-3t3.41-10.17q0-7.37-3.56-10.54T128.71,335.22Z"/><path class="b" d="M130.41,283.82a50.38,50.38,0,1,0,50.37,50.37A50.37,50.37,0,0,0,130.41,283.82Zm19.82,78q-5.21,3.44-16,3.81v7.45H128.6v-7.42l-5.31-.11H123v7.63h-5.64v-7.74h-.93c-1.75,0-3.6,0-5.57.06s-4,.11-6.09.2l0-3.43q4.76,0,6-1.26t1.26-6.11V312.69q0-4.41-1.32-5.4c-.89-.65-2.87-1-6-1.11v-3.47c1.83.09,3.64.15,5.44.19s3.58.07,5.36.07h1.83v-7.65H123v7.58l3-.05,2.57-.06v-7.57h5.64v7.55q9.22.4,13.91,3.74,5.31,3.79,5.31,11.72,0,6.76-4.15,10.68t-12,4.48v.26q9.21.56,14,4.62t4.78,11.35Q156.08,358,150.23,361.82Z"/><path class="b" d="M139.5,328.73q3-3,3-9.74,0-7-2.94-9.85t-10.94-2.83h-5.53v25.4h6.52Q136.49,331.71,139.5,328.73Z"/><path class="d" d="M485.64,194.3H371.35a10.19,10.19,0,0,0-10.18,10.19V442.4A15.86,15.86,0,0,0,377,458.26H485.64a10.19,10.19,0,0,0,10.19-10.18V204.49A10.19,10.19,0,0,0,485.64,194.3Zm-70.53,15.26h26.68a1.86,1.86,0,0,1,1.89,1.7,1.79,1.79,0,0,1-1.79,1.89H415.17a1.83,1.83,0,0,1-1.82-1.44A1.8,1.8,0,0,1,415.11,209.56Zm14.71,244.21a13,13,0,1,1,11.59-11.59A13,13,0,0,1,429.82,453.77ZM489.73,421H367.26V231.55H489.73Z"/><rect class="a" x="367.26" y="231.55" width="122.47" height="189.47"/><rect class="e" x="367.26" y="231.55" width="64.01" height="189.47"/><rect class="f" x="101.43" y="106.28" width="349.5" height="198.3" rx="16.48"/><path class="a" d="M450.93,205.43V117.17A10.89,10.89,0,0,0,440,106.28H112.32a10.9,10.9,0,0,0-10.89,10.89v88.26Z"/><path class="g" d="M159.41,210.58a2.29,2.29,0,0,1-2.29,2.3H146.85a2.3,2.3,0,0,1-2.3-2.3v-10.3a2.3,2.3,0,0,1,2.3-2.3h10.27a2.29,2.29,0,0,1,2.29,2.3Z"/><path class="g" d="M157.12,198H146.85a2.3,2.3,0,0,0-2.3,2.3v10.3a2.3,2.3,0,0,0,2.3,2.3h10.27a2.29,2.29,0,0,0,2.29-2.3v-10.3A2.29,2.29,0,0,0,157.12,198Z"/><path class="g" d="M158.88,195.46a3.08,3.08,0,0,1,3.08,3.08v1.14h13V187.52a5,5,0,0,0-5-5h-9.4l-2.62,13Z"/><polygon class="g" points="156.41 195.46 158.38 182.5 145.58 182.5 147.51 195.46 156.41 195.46"/><path class="g" d="M142,198.54a3.08,3.08,0,0,1,3.08-3.08H146l-2.58-13h-9.39a5,5,0,0,0-5,5v12.16h13Z"/><polygon class="g" points="147.53 215.41 145.58 228.37 158.39 228.37 156.48 215.41 147.53 215.41"/><path class="g" d="M145.09,215.4a3.07,3.07,0,0,1-3.08-3.07v-1.15h-13v12.17a5,5,0,0,0,5,5h9.39l2.6-13Z"/><path class="g" d="M162,212.33a3.07,3.07,0,0,1-3.08,3.07H158l2.55,13h9.39a5,5,0,0,0,5-5V211.18H162Z"/><rect class="g" x="129.05" y="201.07" width="12.96" height="8.72"/><rect class="g" x="161.96" y="201.07" width="12.96" height="8.72"/><circle class="h" cx="412.83" cy="279.99" r="13.34"/><path class="i" d="M396.49,280a14.68,14.68,0,0,1,5.35-11.35,13.34,13.34,0,1,0,0,22.71A14.7,14.7,0,0,1,396.49,280Z"/><rect class="g" x="129.05" y="131.95" width="45.87" height="10.92" rx="5.46"/><path class="g" d="M183.16,254.46H133a4,4,0,0,1-4-4h0a4,4,0,0,1,4-4h50.14a4,4,0,0,1,4,4h0A4,4,0,0,1,183.16,254.46Z"/><path class="g" d="M263,254.46H212.87a4,4,0,0,1-4-4h0a4,4,0,0,1,4-4H263a4,4,0,0,1,4,4h0A4,4,0,0,1,263,254.46Z"/><path class="g" d="M342.85,254.46H292.71a4,4,0,0,1-4-4h0a4,4,0,0,1,4-4h50.14a4,4,0,0,1,4,4h0A4,4,0,0,1,342.85,254.46Z"/><path class="g" d="M422.7,254.46H372.56a4,4,0,0,1-4-4h0a4,4,0,0,1,4-4H422.7a4,4,0,0,1,4,4h0A4,4,0,0,1,422.7,254.46Z"/><ellipse class="j" cx="78.89" cy="126.2" rx="52.34" ry="65.09" transform="translate(-60.7 74.59) rotate(-37.7)"/><polygon class="j" points="38.46 75.19 53.11 64.39 131.39 168.37 115.83 179.72 38.46 75.19"/><ellipse class="j" cx="91.59" cy="116.87" rx="52.34" ry="65.09" transform="translate(-52.35 80.4) rotate(-37.7)"/><ellipse class="k" cx="91.59" cy="116.87" rx="43.4" ry="53.98" transform="translate(-52.35 80.4) rotate(-37.7)"/><path class="j" d="M55.39,104.17q1.86-1.28,3.66-2.58c1.19-.87,2.37-1.75,3.52-2.64q3.32-2.57,6.73-5.37l3.61-3Q80.16,85,86,85.42t10.78,6.81q4.23,5.47,4,10.73t-5,9.65l.16.21q6.33-4.18,12-3.29c3.76.6,7.17,2.86,10.2,6.78q5.22,6.76,3.83,12.82t-9.75,12.52c-1.4,1.07-3.21,2.42-5.45,4S103,148.41,102.2,149c-1.13.87-2.33,1.82-3.58,2.85s-2.54,2.1-3.84,3.21l-2.17-2.75q3.09-2.39,3.12-4.05t-3-5.57L66.36,108.58c-1.83-2.38-3.25-3.61-4.23-3.7s-2.51.61-4.57,2.09Zm14.17-6.31,15.88,20.55,4.24-3.27c3-2.31,4.51-4.78,4.57-7.39s-1.32-5.74-4.14-9.39-5.62-6-8.07-6.49-5.41.53-8.88,3.21Zm18.08,23.39L104.43,143l3.79-2.93q5.53-4.29,5.9-8.41T110,121.7q-4.6-6-8.9-6.74t-9.78,3.47Z"/><rect class="j" x="61.09" y="89.53" width="4.64" height="8.48" transform="translate(-44.1 58.35) rotate(-37.7)"/><rect class="j" x="104.08" y="144.34" width="4.64" height="10.12" transform="translate(-69.15 96.25) rotate(-37.7)"/><rect class="j" x="68.32" y="83.82" width="4.64" height="8.48" transform="translate(-39.1 61.57) rotate(-37.7)"/><rect class="j" x="111.31" y="138.63" width="4.64" height="10.12" transform="translate(-64.14 99.48) rotate(-37.7)"/><path class="k" d="M49.43,152.47l-7.86,5.95a67.44,67.44,0,0,0,8.12,8.48L57.44,161A77.78,77.78,0,0,1,49.43,152.47Z"/><path class="k" d="M71.55,171.19l-7.19,5.46a61.53,61.53,0,0,0,13.21,4.61l6.32-4.79A67.41,67.41,0,0,1,71.55,171.19Z"/><path class="k" d="M28.53,132.82a68.5,68.5,0,0,0,4.18,11.45l7.69-5.83a76.07,76.07,0,0,1-4.56-11.16Z"/><path class="k" d="M51.64,168.54a64.11,64.11,0,0,0,10.26,6.85l7.31-5.55a72.34,72.34,0,0,1-9.87-7.14Z"/><path class="k" d="M41.57,140.68l-7.74,5.87A70.53,70.53,0,0,0,40,156.46l7.86-6,0,0A79.45,79.45,0,0,1,41.57,140.68Z"/><path class="k" d="M86.88,177.32l-6,4.58a54.31,54.31,0,0,0,30.33-3.49A56.87,56.87,0,0,1,86.88,177.32Z"/><path class="k" d="M34.38,89.76a55.88,55.88,0,0,1,3.1-8.94A54.56,54.56,0,0,0,30.9,92.4Z"/><path class="k" d="M33.53,93.53l-4.25,3.22a61.12,61.12,0,0,0-3,16.86L32.49,109A65.16,65.16,0,0,1,33.53,93.53Z"/><path class="k" d="M26.3,116.76a66.07,66.07,0,0,0,1.58,13.42l7.19-5.45a72.16,72.16,0,0,1-2.37-12.82Z"/><ellipse class="j" cx="442.48" cy="45.37" rx="42.21" ry="33.94" transform="translate(136.01 367.74) rotate(-52.3)"/><polygon class="j" points="468.69 12.3 459.19 5.29 408.44 72.72 418.52 80.08 468.69 12.3"/><ellipse class="j" cx="434.24" cy="39.32" rx="42.21" ry="33.94" transform="translate(137.59 358.87) rotate(-52.3)"/><ellipse class="k" cx="434.24" cy="39.32" rx="35" ry="28.15" transform="translate(137.59 358.87) rotate(-52.3)"/><path class="j" d="M456.31,32.91c-1.33-1-2.32-1.42-3-1.36s-1.56.86-2.75,2.4L433.5,56.08c-1.31,1.69-2,2.9-1.95,3.61s.69,1.6,2,2.63l-1.41,1.78c-.84-.72-1.67-1.42-2.48-2.08s-1.59-1.28-2.33-1.85c-.5-.39-1.48-1.11-2.93-2.16s-2.63-1.92-3.53-2.62q-5.41-4.19-6.33-8.12T417.06,39q3-3.81,6.61-4.4t7.78,2.14l.1-.14a9.06,9.06,0,0,1-3.24-6.26,10.57,10.57,0,0,1,2.58-7q3.21-4.15,7-4.41t8.47,3.37l2.35,1.92c1.47,1.21,2.93,2.37,4.36,3.48.75.58,1.51,1.15,2.29,1.71s1.56,1.13,2.37,1.68ZM446.2,25.2q-3.39-2.61-5.77-2.09c-1.59.35-3.33,1.76-5.23,4.21s-2.72,4.4-2.68,6.09,1,3.29,3,4.79l2.75,2.12L448.53,27ZM434.44,40.34q-3.56-2.76-6.35-2.25c-1.85.33-3.78,1.79-5.77,4.37s-2.84,4.66-2.69,6.44,1.43,3.6,3.83,5.45l2.46,1.9,10.89-14.09Z"/><rect class="j" x="449.77" y="22.84" width="5.5" height="3.01" transform="translate(156.55 367.51) rotate(-52.3)"/><rect class="j" x="421.36" y="58.91" width="6.56" height="3.01" transform="translate(117.17 359.47) rotate(-52.3)"/><rect class="j" x="445.08" y="19.14" width="5.5" height="3.01" transform="translate(157.66 362.37) rotate(-52.3)"/><rect class="j" x="416.67" y="55.21" width="6.56" height="3.01" transform="translate(118.28 354.32) rotate(-52.3)"/><path class="k" d="M461.58,62.41l5.1,3.86a45.13,45.13,0,0,1-5.27,5.5l-5-3.82A49.87,49.87,0,0,0,461.58,62.41Z"/><path class="k" d="M447.24,74.55l4.66,3.54a40.39,40.39,0,0,1-8.57,3L439.24,78A43.57,43.57,0,0,0,447.24,74.55Z"/><path class="k" d="M475.14,49.66a44,44,0,0,1-2.72,7.43l-5-3.78a49.84,49.84,0,0,0,3-7.24Z"/><path class="k" d="M460.15,72.83a41.86,41.86,0,0,1-6.65,4.44l-4.75-3.59a48.33,48.33,0,0,0,6.41-4.63Z"/><path class="k" d="M466.68,54.76l5,3.81a46.52,46.52,0,0,1-4,6.43l-5.1-3.86,0,0A52.33,52.33,0,0,0,466.68,54.76Z"/><path class="k" d="M437.29,78.52l3.92,3a35.13,35.13,0,0,1-19.66-2.26A36.71,36.71,0,0,0,437.29,78.52Z"/><path class="k" d="M471.34,21.75a35.47,35.47,0,0,0-2-5.8,35.08,35.08,0,0,1,4.27,7.51Z"/><path class="k" d="M471.89,24.19l2.76,2.08a39.74,39.74,0,0,1,1.91,10.94l-4-3A41.94,41.94,0,0,0,471.89,24.19Z"/><path class="k" d="M476.58,39.25a42.52,42.52,0,0,1-1,8.71l-4.66-3.54a45.73,45.73,0,0,0,1.54-8.32Z"/></svg>