<svg id="Capa_1" data-name="Capa 1" xmlns="http://www.w3.org/2000/svg" viewBox="0 0 248 62.31"><defs><style>.cls-1{fill:#2b2a65;}.cls-2{fill:#1a1a18;}</style></defs><path class="cls-1" d="M61.87,24.57A127.42,127.42,0,0,0,52.1,13.86c-4.74,5.29-9.38,11.44-10.35,16.4C40.94,34.47,46.93,42.62,52,48.55a125.36,125.36,0,0,0,9.82-10.78c3.49-4.31,3.5-8.88,0-13.2"/><path class="cls-1" d="M12.4,13.71A128,128,0,0,0,2.47,24.59a10,10,0,0,0,0,13.18,123.89,123.89,0,0,0,9.89,10.84C17.15,43.31,21.82,37.09,22.8,32c.88-4.17-5.22-12.33-10.4-18.27"/><path class="cls-1" d="M33.12,21.56c5-.91,11.05-5.55,16.29-10.3A126.19,126.19,0,0,0,39,2.41a10.84,10.84,0,0,0-13.64,0A125.1,125.1,0,0,0,15,11.2c5.91,5.18,14,11.24,18.11,10.36"/><path class="cls-1" d="M39,59.93a128.75,128.75,0,0,0,10.42-8.86c-5.84-5.16-13.83-11.21-18-10.39-5,1-11.09,5.75-16.33,10.53a127.37,127.37,0,0,0,10.27,8.72,10.94,10.94,0,0,0,13.63,0"/><path class="cls-2" d="M118.17,24.9,110,47.57h-6.32l-5.1-14.08L93.26,47.57H86.94L78.77,24.9H85l5.35,15.34L95.87,24.9h5.57l5.39,15.34,5.52-15.34Z"/><path class="cls-2" d="M121.58,20.68a3.56,3.56,0,0,1,0-5.22,4.18,4.18,0,0,1,3-1.05,4.25,4.25,0,0,1,3,1A3.22,3.22,0,0,1,128.62,18a3.56,3.56,0,0,1-1.14,2.71,4.6,4.6,0,0,1-5.9,0Zm-.34,4.22h6.58V47.57h-6.58Z"/><path class="cls-2" d="M148.55,46.47a6.78,6.78,0,0,1-2.38,1.08,12,12,0,0,1-3,.36,8.82,8.82,0,0,1-6.26-2.07,7.91,7.91,0,0,1-2.21-6.07V30.46h-3.5V25.4h3.5V19.88h6.57V25.4H147v5.06H141.3v9.23A3.09,3.09,0,0,0,142,41.9a2.74,2.74,0,0,0,2.09.78,4.24,4.24,0,0,0,2.65-.84Z"/><path class="cls-2" d="M156,46.41a11.17,11.17,0,0,1-4.51-4.15,11.34,11.34,0,0,1-1.62-6,11.33,11.33,0,0,1,1.62-6A11.11,11.11,0,0,1,156,26.06a13.88,13.88,0,0,1,6.51-1.5,12.61,12.61,0,0,1,6.26,1.5,8.82,8.82,0,0,1,3.89,4.27l-5.09,2.74a5.56,5.56,0,0,0-5.1-3.11,5.77,5.77,0,0,0-4.26,1.68,6.22,6.22,0,0,0-1.69,4.59,6.25,6.25,0,0,0,1.69,4.6,5.77,5.77,0,0,0,4.26,1.68,5.53,5.53,0,0,0,5.1-3.12l5.09,2.79a9.05,9.05,0,0,1-3.89,4.21,12.51,12.51,0,0,1-6.26,1.52A13.88,13.88,0,0,1,156,46.41Z"/><path class="cls-2" d="M193.68,27.07c1.88,1.67,2.83,4.19,2.83,7.56V47.57h-6.16V44.75c-1.23,2.1-3.54,3.16-6.91,3.16a10.74,10.74,0,0,1-4.53-.89A6.77,6.77,0,0,1,176,44.58,6.4,6.4,0,0,1,175,41a5.91,5.91,0,0,1,2.38-5q2.39-1.82,7.36-1.82h5.22a4.17,4.17,0,0,0-1.3-3.3,5.74,5.74,0,0,0-3.92-1.16,11.38,11.38,0,0,0-3.56.57,9.41,9.41,0,0,0-3,1.53l-2.36-4.59a14.35,14.35,0,0,1,4.45-2,19.81,19.81,0,0,1,5.33-.72Q190.86,24.56,193.68,27.07Zm-5.6,15.63a4.23,4.23,0,0,0,1.85-2.29V38.09h-4.51q-4,0-4,2.65a2.35,2.35,0,0,0,1,2,4.4,4.4,0,0,0,2.72.74A5.72,5.72,0,0,0,188.08,42.7Z"/><path class="cls-2" d="M204.55,47.21a14.08,14.08,0,0,1-4.29-1.75l2.19-4.72a13.41,13.41,0,0,0,3.66,1.58,15.33,15.33,0,0,0,4.22.61c2.78,0,4.17-.68,4.17-2.06a1.46,1.46,0,0,0-1.14-1.39,17,17,0,0,0-3.5-.72,33,33,0,0,1-4.59-1,7.08,7.08,0,0,1-3.14-1.94,5.51,5.51,0,0,1-1.33-4,6.2,6.2,0,0,1,1.25-3.81,7.94,7.94,0,0,1,3.62-2.59,15.44,15.44,0,0,1,5.63-.93,22.16,22.16,0,0,1,4.78.53A13.26,13.26,0,0,1,220,26.54l-2.19,4.68a13.13,13.13,0,0,0-6.53-1.69,6.66,6.66,0,0,0-3.16.59,1.74,1.74,0,0,0-1.06,1.52,1.51,1.51,0,0,0,1.14,1.48,21,21,0,0,0,3.62.8,39.18,39.18,0,0,1,4.56,1,6.85,6.85,0,0,1,3.07,1.91,5.45,5.45,0,0,1,1.31,3.88,5.93,5.93,0,0,1-1.27,3.75A8,8,0,0,1,215.83,47a16.58,16.58,0,0,1-5.76.91A21.76,21.76,0,0,1,204.55,47.21Z"/><path class="cls-2" d="M245.41,27.09q2.59,2.54,2.59,7.5v13h-6.57v-12a5.92,5.92,0,0,0-1.18-4,4.33,4.33,0,0,0-3.42-1.33,5.2,5.2,0,0,0-4,1.54,6.37,6.37,0,0,0-1.47,4.57V47.57h-6.58V16.3h6.58v11a8.66,8.66,0,0,1,3.16-2,11.24,11.24,0,0,1,4-.7A9.33,9.33,0,0,1,245.41,27.09Z"/></svg>