<svg id="Capa_1" data-name="Capa 1" xmlns="http://www.w3.org/2000/svg" viewBox="0 0 178.31 54.22"><defs><style>.cls-1{fill:#fff;}.cls-2{fill:#2a2c65;}.cls-3{font-size:12.66px;font-family:Montserrat-Light, Montserrat;font-weight:300;}.cls-3,.cls-4{fill:#2b2a65;}.cls-4{font-size:20.22px;font-family:Montserrat-SemiBold, Montserrat;font-weight:600;}.cls-5{letter-spacing:-0.01em;}.cls-6{letter-spacing:0em;}.cls-7{fill:#fbd700;}.cls-8{fill:#7cb85b;}.cls-9{fill:#e03442;}.cls-10{fill:#70c5ef;}</style></defs><rect class="cls-1" x="0.5" y="0.5" width="177.31" height="53.22" rx="4.5"/><path class="cls-2" d="M173.31,1a4,4,0,0,1,4,4V49.22a4,4,0,0,1-4,4H5a4,4,0,0,1-4-4V5A4,4,0,0,1,5,1H173.31m0-1H5A5,5,0,0,0,0,5V49.22a5,5,0,0,0,5,5H173.31a5,5,0,0,0,5-5V5a5,5,0,0,0-5-5Z"/><text class="cls-3" transform="translate(46.87 17.91)">Disponible en</text><text class="cls-4" transform="translate(46.87 39.99)">Google Pl<tspan class="cls-5" x="100.23" y="0">a</tspan><tspan class="cls-6" x="112.3" y="0">y</tspan></text><path class="cls-7" d="M42.9,26.42,36.11,22.5l-5.59,5.4,5.11,4.94,7.27-4.2a1.28,1.28,0,0,0,0-2.22Z"/><polygon class="cls-8" points="34.96 21.83 27.48 17.52 11.1 9.12 29.6 27.01 34.96 21.83"/><polygon class="cls-9" points="11.37 46.41 27.51 37.52 34.48 33.5 29.6 28.79 11.37 46.41"/><polygon class="cls-10" points="10.01 9.85 9.99 45.97 28.68 27.9 10.01 9.85"/></svg>